<?xml version="1.0" encoding="utf-8" standalone="no"?>
<!DOCTYPE svg PUBLIC "-//W3C//DTD SVG 1.1//EN"
  "http://www.w3.org/Graphics/SVG/1.1/DTD/svg11.dtd">
<svg height="1065.837663pt" version="1.1" viewBox="0 0 3220.725 1065.837663" width="3220.725pt" xmlns="http://www.w3.org/2000/svg" xmlns:xlink="http://www.w3.org/1999/xlink">
 <metadata>
  <rdf:RDF xmlns:cc="http://creativecommons.org/ns#" xmlns:dc="http://purl.org/dc/elements/1.1/" xmlns:rdf="http://www.w3.org/1999/02/22-rdf-syntax-ns#">
   <cc:Work>
    <dc:type rdf:resource="http://purl.org/dc/dcmitype/StillImage"/>
    <dc:date>2021-08-05T16:10:24.744992</dc:date>
    <dc:format>image/svg+xml</dc:format>
    <dc:creator>
     <cc:Agent>
      <dc:title>Matplotlib v3.4.2, https://matplotlib.org/</dc:title>
     </cc:Agent>
    </dc:creator>
   </cc:Work>
  </rdf:RDF>
 </metadata>
 <defs>
  <style type="text/css">*{stroke-linecap:butt;stroke-linejoin:round;}</style>
 </defs>
 <g id="figure_1">
  <g id="patch_1">
   <path d="M 0 1065.837663 
L 3220.725 1065.837663 
L 3220.725 0 
L 0 0 
z
" style="fill:#f0f0f0;"/>
  </g>
  <g id="axes_1">
   <g id="patch_2">
    <path d="M 67.9625 947.401875 
L 2573.5625 947.401875 
L 2573.5625 66.121875 
L 67.9625 66.121875 
z
" style="fill:#f0f0f0;"/>
   </g>
   <g id="matplotlib.axis_1">
    <g id="xtick_1">
     <g id="line2d_1">
      <path clip-path="url(#pd3555eb5ec)" d="M 417.489773 947.401875 
L 417.489773 66.121875 
" style="fill:none;stroke:#000000;stroke-dasharray:12.8,3.2,2,3.2;stroke-dashoffset:0;stroke-width:2;"/>
     </g>
     <g id="line2d_2"/>
     <g id="text_1">
      <!-- 2020-09 -->
      <g transform="translate(306.407996 1032.975226)rotate(-30)scale(0.3 -0.3)">
       <defs>
        <path d="M 819 3553 
L 469 3553 
L 469 4384 
Q 803 4563 1142 4656 
Q 1481 4750 1806 4750 
Q 2534 4750 2956 4397 
Q 3378 4044 3378 3438 
Q 3378 2753 2422 1800 
Q 2347 1728 2309 1691 
L 1131 513 
L 3078 513 
L 3078 1088 
L 3444 1088 
L 3444 0 
L 434 0 
L 434 341 
L 1850 1753 
Q 2319 2222 2519 2614 
Q 2719 3006 2719 3438 
Q 2719 3909 2473 4175 
Q 2228 4441 1797 4441 
Q 1350 4441 1106 4219 
Q 863 3997 819 3553 
z
" id="DejaVuSerif-32" transform="scale(0.015625)"/>
        <path d="M 2034 219 
Q 2513 219 2750 744 
Q 2988 1269 2988 2328 
Q 2988 3391 2750 3916 
Q 2513 4441 2034 4441 
Q 1556 4441 1318 3916 
Q 1081 3391 1081 2328 
Q 1081 1269 1318 744 
Q 1556 219 2034 219 
z
M 2034 -91 
Q 1275 -91 848 546 
Q 422 1184 422 2328 
Q 422 3475 848 4112 
Q 1275 4750 2034 4750 
Q 2797 4750 3222 4112 
Q 3647 3475 3647 2328 
Q 3647 1184 3222 546 
Q 2797 -91 2034 -91 
z
" id="DejaVuSerif-30" transform="scale(0.015625)"/>
        <path d="M 281 1959 
L 1881 1959 
L 1881 1472 
L 281 1472 
L 281 1959 
z
" id="DejaVuSerif-2d" transform="scale(0.015625)"/>
        <path d="M 2994 2091 
Q 2784 1856 2512 1740 
Q 2241 1625 1900 1625 
Q 1206 1625 804 2044 
Q 403 2463 403 3188 
Q 403 3897 839 4323 
Q 1275 4750 2003 4750 
Q 2794 4750 3217 4161 
Q 3641 3572 3641 2478 
Q 3641 1253 3137 581 
Q 2634 -91 1722 -91 
Q 1475 -91 1203 -44 
Q 931 3 647 97 
L 647 872 
L 997 872 
Q 1038 556 1241 387 
Q 1444 219 1784 219 
Q 2391 219 2687 676 
Q 2984 1134 2994 2091 
z
M 1978 4441 
Q 1534 4441 1298 4117 
Q 1063 3794 1063 3188 
Q 1063 2581 1298 2256 
Q 1534 1931 1978 1931 
Q 2422 1931 2658 2245 
Q 2894 2559 2894 3150 
Q 2894 3772 2656 4106 
Q 2419 4441 1978 4441 
z
" id="DejaVuSerif-39" transform="scale(0.015625)"/>
       </defs>
       <use xlink:href="#DejaVuSerif-32"/>
       <use x="63.623047" xlink:href="#DejaVuSerif-30"/>
       <use x="127.246094" xlink:href="#DejaVuSerif-32"/>
       <use x="190.869141" xlink:href="#DejaVuSerif-30"/>
       <use x="254.492188" xlink:href="#DejaVuSerif-2d"/>
       <use x="288.28125" xlink:href="#DejaVuSerif-30"/>
       <use x="351.904297" xlink:href="#DejaVuSerif-39"/>
      </g>
     </g>
    </g>
    <g id="xtick_2">
     <g id="line2d_3">
      <path clip-path="url(#pd3555eb5ec)" d="M 786.049213 947.401875 
L 786.049213 66.121875 
" style="fill:none;stroke:#000000;stroke-dasharray:12.8,3.2,2,3.2;stroke-dashoffset:0;stroke-width:2;"/>
     </g>
     <g id="line2d_4"/>
     <g id="text_2">
      <!-- 2020-11 -->
      <g transform="translate(674.967437 1032.975226)rotate(-30)scale(0.3 -0.3)">
       <defs>
        <path d="M 909 0 
L 909 331 
L 1722 331 
L 1722 4213 
L 781 3603 
L 781 4013 
L 1919 4750 
L 2350 4750 
L 2350 331 
L 3163 331 
L 3163 0 
L 909 0 
z
" id="DejaVuSerif-31" transform="scale(0.015625)"/>
       </defs>
       <use xlink:href="#DejaVuSerif-32"/>
       <use x="63.623047" xlink:href="#DejaVuSerif-30"/>
       <use x="127.246094" xlink:href="#DejaVuSerif-32"/>
       <use x="190.869141" xlink:href="#DejaVuSerif-30"/>
       <use x="254.492188" xlink:href="#DejaVuSerif-2d"/>
       <use x="288.28125" xlink:href="#DejaVuSerif-31"/>
       <use x="351.904297" xlink:href="#DejaVuSerif-31"/>
      </g>
     </g>
    </g>
    <g id="xtick_3">
     <g id="line2d_5">
      <path clip-path="url(#pd3555eb5ec)" d="M 1154.608654 947.401875 
L 1154.608654 66.121875 
" style="fill:none;stroke:#000000;stroke-dasharray:12.8,3.2,2,3.2;stroke-dashoffset:0;stroke-width:2;"/>
     </g>
     <g id="line2d_6"/>
     <g id="text_3">
      <!-- 2021-01 -->
      <g transform="translate(1043.526878 1032.975226)rotate(-30)scale(0.3 -0.3)">
       <use xlink:href="#DejaVuSerif-32"/>
       <use x="63.623047" xlink:href="#DejaVuSerif-30"/>
       <use x="127.246094" xlink:href="#DejaVuSerif-32"/>
       <use x="190.869141" xlink:href="#DejaVuSerif-31"/>
       <use x="254.492188" xlink:href="#DejaVuSerif-2d"/>
       <use x="288.28125" xlink:href="#DejaVuSerif-30"/>
       <use x="351.904297" xlink:href="#DejaVuSerif-31"/>
      </g>
     </g>
    </g>
    <g id="xtick_4">
     <g id="line2d_7">
      <path clip-path="url(#pd3555eb5ec)" d="M 1511.084178 947.401875 
L 1511.084178 66.121875 
" style="fill:none;stroke:#000000;stroke-dasharray:12.8,3.2,2,3.2;stroke-dashoffset:0;stroke-width:2;"/>
     </g>
     <g id="line2d_8"/>
     <g id="text_4">
      <!-- 2021-03 -->
      <g transform="translate(1400.002402 1032.975226)rotate(-30)scale(0.3 -0.3)">
       <defs>
        <path d="M 622 4469 
Q 988 4606 1323 4678 
Q 1659 4750 1953 4750 
Q 2638 4750 3022 4454 
Q 3406 4159 3406 3634 
Q 3406 3213 3140 2930 
Q 2875 2647 2388 2547 
Q 2963 2466 3280 2130 
Q 3597 1794 3597 1259 
Q 3597 606 3158 257 
Q 2719 -91 1894 -91 
Q 1528 -91 1179 -12 
Q 831 66 488 225 
L 488 1131 
L 838 1131 
Q 869 681 1141 450 
Q 1413 219 1906 219 
Q 2384 219 2661 495 
Q 2938 772 2938 1253 
Q 2938 1803 2653 2086 
Q 2369 2369 1819 2369 
L 1522 2369 
L 1522 2688 
L 1678 2688 
Q 2225 2688 2498 2914 
Q 2772 3141 2772 3597 
Q 2772 4006 2547 4223 
Q 2322 4441 1900 4441 
Q 1478 4441 1245 4241 
Q 1013 4041 972 3647 
L 622 3647 
L 622 4469 
z
" id="DejaVuSerif-33" transform="scale(0.015625)"/>
       </defs>
       <use xlink:href="#DejaVuSerif-32"/>
       <use x="63.623047" xlink:href="#DejaVuSerif-30"/>
       <use x="127.246094" xlink:href="#DejaVuSerif-32"/>
       <use x="190.869141" xlink:href="#DejaVuSerif-31"/>
       <use x="254.492188" xlink:href="#DejaVuSerif-2d"/>
       <use x="288.28125" xlink:href="#DejaVuSerif-30"/>
       <use x="351.904297" xlink:href="#DejaVuSerif-33"/>
      </g>
     </g>
    </g>
    <g id="xtick_5">
     <g id="line2d_9">
      <path clip-path="url(#pd3555eb5ec)" d="M 1879.643619 947.401875 
L 1879.643619 66.121875 
" style="fill:none;stroke:#000000;stroke-dasharray:12.8,3.2,2,3.2;stroke-dashoffset:0;stroke-width:2;"/>
     </g>
     <g id="line2d_10"/>
     <g id="text_5">
      <!-- 2021-05 -->
      <g transform="translate(1768.561843 1032.975226)rotate(-30)scale(0.3 -0.3)">
       <defs>
        <path d="M 3219 4666 
L 3219 4153 
L 1081 4153 
L 1081 2816 
Q 1244 2928 1461 2984 
Q 1678 3041 1947 3041 
Q 2703 3041 3140 2622 
Q 3578 2203 3578 1478 
Q 3578 738 3136 323 
Q 2694 -91 1894 -91 
Q 1572 -91 1234 -12 
Q 897 66 544 225 
L 544 1131 
L 897 1131 
Q 925 688 1179 453 
Q 1434 219 1894 219 
Q 2388 219 2653 544 
Q 2919 869 2919 1478 
Q 2919 2084 2655 2407 
Q 2391 2731 1894 2731 
Q 1613 2731 1398 2631 
Q 1184 2531 1019 2322 
L 750 2322 
L 750 4666 
L 3219 4666 
z
" id="DejaVuSerif-35" transform="scale(0.015625)"/>
       </defs>
       <use xlink:href="#DejaVuSerif-32"/>
       <use x="63.623047" xlink:href="#DejaVuSerif-30"/>
       <use x="127.246094" xlink:href="#DejaVuSerif-32"/>
       <use x="190.869141" xlink:href="#DejaVuSerif-31"/>
       <use x="254.492188" xlink:href="#DejaVuSerif-2d"/>
       <use x="288.28125" xlink:href="#DejaVuSerif-30"/>
       <use x="351.904297" xlink:href="#DejaVuSerif-35"/>
      </g>
     </g>
    </g>
    <g id="xtick_6">
     <g id="line2d_11">
      <path clip-path="url(#pd3555eb5ec)" d="M 2248.203059 947.401875 
L 2248.203059 66.121875 
" style="fill:none;stroke:#000000;stroke-dasharray:12.8,3.2,2,3.2;stroke-dashoffset:0;stroke-width:2;"/>
     </g>
     <g id="line2d_12"/>
     <g id="text_6">
      <!-- 2021-07 -->
      <g transform="translate(2137.121283 1032.975226)rotate(-30)scale(0.3 -0.3)">
       <defs>
        <path d="M 3609 4347 
L 1784 0 
L 1319 0 
L 3059 4153 
L 903 4153 
L 903 3578 
L 538 3578 
L 538 4666 
L 3609 4666 
L 3609 4347 
z
" id="DejaVuSerif-37" transform="scale(0.015625)"/>
       </defs>
       <use xlink:href="#DejaVuSerif-32"/>
       <use x="63.623047" xlink:href="#DejaVuSerif-30"/>
       <use x="127.246094" xlink:href="#DejaVuSerif-32"/>
       <use x="190.869141" xlink:href="#DejaVuSerif-31"/>
       <use x="254.492188" xlink:href="#DejaVuSerif-2d"/>
       <use x="288.28125" xlink:href="#DejaVuSerif-30"/>
       <use x="351.904297" xlink:href="#DejaVuSerif-37"/>
      </g>
     </g>
    </g>
    <g id="text_7">
     <!-- Date -->
     <g transform="translate(1300.672063 1055.143788)scale(0.168 -0.168)">
      <defs>
       <path d="M 1581 331 
L 2163 331 
Q 3072 331 3558 850 
Q 4044 1369 4044 2338 
Q 4044 3306 3559 3818 
Q 3075 4331 2163 4331 
L 1581 4331 
L 1581 331 
z
M 353 0 
L 353 331 
L 947 331 
L 947 4331 
L 353 4331 
L 353 4666 
L 2209 4666 
Q 3416 4666 4089 4050 
Q 4763 3434 4763 2338 
Q 4763 1238 4088 619 
Q 3413 0 2209 0 
L 353 0 
z
" id="DejaVuSerif-44" transform="scale(0.015625)"/>
       <path d="M 2547 1044 
L 2547 1747 
L 1806 1747 
Q 1378 1747 1168 1562 
Q 959 1378 959 997 
Q 959 650 1171 447 
Q 1384 244 1747 244 
Q 2106 244 2326 466 
Q 2547 688 2547 1044 
z
M 3122 2075 
L 3122 331 
L 3634 331 
L 3634 0 
L 2547 0 
L 2547 359 
Q 2356 128 2106 18 
Q 1856 -91 1522 -91 
Q 969 -91 644 203 
Q 319 497 319 997 
Q 319 1513 691 1797 
Q 1063 2081 1741 2081 
L 2547 2081 
L 2547 2309 
Q 2547 2688 2317 2895 
Q 2088 3103 1672 3103 
Q 1328 3103 1125 2947 
Q 922 2791 872 2484 
L 575 2484 
L 575 3156 
Q 875 3284 1158 3348 
Q 1441 3413 1709 3413 
Q 2400 3413 2761 3070 
Q 3122 2728 3122 2075 
z
" id="DejaVuSerif-61" transform="scale(0.015625)"/>
       <path d="M 691 2988 
L 184 2988 
L 184 3322 
L 691 3322 
L 691 4353 
L 1269 4353 
L 1269 3322 
L 2350 3322 
L 2350 2988 
L 1269 2988 
L 1269 878 
Q 1269 456 1350 337 
Q 1431 219 1650 219 
Q 1875 219 1978 351 
Q 2081 484 2088 781 
L 2522 781 
Q 2497 328 2275 118 
Q 2053 -91 1600 -91 
Q 1103 -91 897 129 
Q 691 350 691 878 
L 691 2988 
z
" id="DejaVuSerif-74" transform="scale(0.015625)"/>
       <path d="M 3469 1600 
L 991 1600 
L 991 1575 
Q 991 903 1244 561 
Q 1497 219 1991 219 
Q 2369 219 2611 417 
Q 2853 616 2950 1006 
L 3413 1006 
Q 3275 459 2904 184 
Q 2534 -91 1931 -91 
Q 1203 -91 761 389 
Q 319 869 319 1663 
Q 319 2450 753 2931 
Q 1188 3413 1894 3413 
Q 2647 3413 3050 2948 
Q 3453 2484 3469 1600 
z
M 2791 1931 
Q 2772 2513 2545 2808 
Q 2319 3103 1894 3103 
Q 1497 3103 1269 2806 
Q 1041 2509 991 1931 
L 2791 1931 
z
" id="DejaVuSerif-65" transform="scale(0.015625)"/>
      </defs>
      <use xlink:href="#DejaVuSerif-44"/>
      <use x="80.175781" xlink:href="#DejaVuSerif-61"/>
      <use x="139.794922" xlink:href="#DejaVuSerif-74"/>
      <use x="179.980469" xlink:href="#DejaVuSerif-65"/>
     </g>
    </g>
   </g>
   <g id="matplotlib.axis_2">
    <g id="ytick_1">
     <g id="line2d_13">
      <path clip-path="url(#pd3555eb5ec)" d="M 67.9625 945.99488 
L 2573.5625 945.99488 
" style="fill:none;stroke:#000000;stroke-dasharray:12.8,3.2,2,3.2;stroke-dashoffset:0;stroke-width:2;"/>
     </g>
     <g id="line2d_14"/>
     <g id="text_8">
      <!-- 120 -->
      <g transform="translate(7.2 957.392537)scale(0.3 -0.3)">
       <use xlink:href="#DejaVuSerif-31"/>
       <use x="63.623047" xlink:href="#DejaVuSerif-32"/>
       <use x="127.246094" xlink:href="#DejaVuSerif-30"/>
      </g>
     </g>
    </g>
    <g id="ytick_2">
     <g id="line2d_15">
      <path clip-path="url(#pd3555eb5ec)" d="M 67.9625 835.955441 
L 2573.5625 835.955441 
" style="fill:none;stroke:#000000;stroke-dasharray:12.8,3.2,2,3.2;stroke-dashoffset:0;stroke-width:2;"/>
     </g>
     <g id="line2d_16"/>
     <g id="text_9">
      <!-- 130 -->
      <g transform="translate(7.2 847.353097)scale(0.3 -0.3)">
       <use xlink:href="#DejaVuSerif-31"/>
       <use x="63.623047" xlink:href="#DejaVuSerif-33"/>
       <use x="127.246094" xlink:href="#DejaVuSerif-30"/>
      </g>
     </g>
    </g>
    <g id="ytick_3">
     <g id="line2d_17">
      <path clip-path="url(#pd3555eb5ec)" d="M 67.9625 725.916001 
L 2573.5625 725.916001 
" style="fill:none;stroke:#000000;stroke-dasharray:12.8,3.2,2,3.2;stroke-dashoffset:0;stroke-width:2;"/>
     </g>
     <g id="line2d_18"/>
     <g id="text_10">
      <!-- 140 -->
      <g transform="translate(7.2 737.313658)scale(0.3 -0.3)">
       <defs>
        <path d="M 2234 1581 
L 2234 4063 
L 641 1581 
L 2234 1581 
z
M 3609 0 
L 1484 0 
L 1484 331 
L 2234 331 
L 2234 1247 
L 197 1247 
L 197 1588 
L 2241 4750 
L 2859 4750 
L 2859 1581 
L 3750 1581 
L 3750 1247 
L 2859 1247 
L 2859 331 
L 3609 331 
L 3609 0 
z
" id="DejaVuSerif-34" transform="scale(0.015625)"/>
       </defs>
       <use xlink:href="#DejaVuSerif-31"/>
       <use x="63.623047" xlink:href="#DejaVuSerif-34"/>
       <use x="127.246094" xlink:href="#DejaVuSerif-30"/>
      </g>
     </g>
    </g>
    <g id="ytick_4">
     <g id="line2d_19">
      <path clip-path="url(#pd3555eb5ec)" d="M 67.9625 615.876562 
L 2573.5625 615.876562 
" style="fill:none;stroke:#000000;stroke-dasharray:12.8,3.2,2,3.2;stroke-dashoffset:0;stroke-width:2;"/>
     </g>
     <g id="line2d_20"/>
     <g id="text_11">
      <!-- 150 -->
      <g transform="translate(7.2 627.274218)scale(0.3 -0.3)">
       <use xlink:href="#DejaVuSerif-31"/>
       <use x="63.623047" xlink:href="#DejaVuSerif-35"/>
       <use x="127.246094" xlink:href="#DejaVuSerif-30"/>
      </g>
     </g>
    </g>
    <g id="ytick_5">
     <g id="line2d_21">
      <path clip-path="url(#pd3555eb5ec)" d="M 67.9625 505.837123 
L 2573.5625 505.837123 
" style="fill:none;stroke:#000000;stroke-dasharray:12.8,3.2,2,3.2;stroke-dashoffset:0;stroke-width:2;"/>
     </g>
     <g id="line2d_22"/>
     <g id="text_12">
      <!-- 160 -->
      <g transform="translate(7.2 517.234779)scale(0.3 -0.3)">
       <defs>
        <path d="M 2094 219 
Q 2534 219 2771 542 
Q 3009 866 3009 1472 
Q 3009 2078 2771 2401 
Q 2534 2725 2094 2725 
Q 1647 2725 1412 2412 
Q 1178 2100 1178 1509 
Q 1178 888 1415 553 
Q 1653 219 2094 219 
z
M 1075 2569 
Q 1288 2803 1556 2918 
Q 1825 3034 2163 3034 
Q 2859 3034 3264 2615 
Q 3669 2197 3669 1472 
Q 3669 763 3233 336 
Q 2797 -91 2069 -91 
Q 1278 -91 853 498 
Q 428 1088 428 2181 
Q 428 3406 931 4078 
Q 1434 4750 2350 4750 
Q 2597 4750 2869 4703 
Q 3141 4656 3425 4563 
L 3425 3794 
L 3072 3794 
Q 3034 4109 2831 4275 
Q 2628 4441 2284 4441 
Q 1678 4441 1381 3981 
Q 1084 3522 1075 2569 
z
" id="DejaVuSerif-36" transform="scale(0.015625)"/>
       </defs>
       <use xlink:href="#DejaVuSerif-31"/>
       <use x="63.623047" xlink:href="#DejaVuSerif-36"/>
       <use x="127.246094" xlink:href="#DejaVuSerif-30"/>
      </g>
     </g>
    </g>
    <g id="ytick_6">
     <g id="line2d_23">
      <path clip-path="url(#pd3555eb5ec)" d="M 67.9625 395.797683 
L 2573.5625 395.797683 
" style="fill:none;stroke:#000000;stroke-dasharray:12.8,3.2,2,3.2;stroke-dashoffset:0;stroke-width:2;"/>
     </g>
     <g id="line2d_24"/>
     <g id="text_13">
      <!-- 170 -->
      <g transform="translate(7.2 407.195339)scale(0.3 -0.3)">
       <use xlink:href="#DejaVuSerif-31"/>
       <use x="63.623047" xlink:href="#DejaVuSerif-37"/>
       <use x="127.246094" xlink:href="#DejaVuSerif-30"/>
      </g>
     </g>
    </g>
    <g id="ytick_7">
     <g id="line2d_25">
      <path clip-path="url(#pd3555eb5ec)" d="M 67.9625 285.758244 
L 2573.5625 285.758244 
" style="fill:none;stroke:#000000;stroke-dasharray:12.8,3.2,2,3.2;stroke-dashoffset:0;stroke-width:2;"/>
     </g>
     <g id="line2d_26"/>
     <g id="text_14">
      <!-- 180 -->
      <g transform="translate(7.2 297.1559)scale(0.3 -0.3)">
       <defs>
        <path d="M 2981 1275 
Q 2981 1775 2732 2051 
Q 2484 2328 2034 2328 
Q 1584 2328 1336 2051 
Q 1088 1775 1088 1275 
Q 1088 772 1336 495 
Q 1584 219 2034 219 
Q 2484 219 2732 495 
Q 2981 772 2981 1275 
z
M 2853 3541 
Q 2853 3966 2637 4203 
Q 2422 4441 2034 4441 
Q 1650 4441 1433 4203 
Q 1216 3966 1216 3541 
Q 1216 3113 1433 2875 
Q 1650 2638 2034 2638 
Q 2422 2638 2637 2875 
Q 2853 3113 2853 3541 
z
M 2516 2484 
Q 3047 2413 3344 2092 
Q 3641 1772 3641 1275 
Q 3641 619 3225 264 
Q 2809 -91 2034 -91 
Q 1263 -91 845 264 
Q 428 619 428 1275 
Q 428 1772 725 2092 
Q 1022 2413 1556 2484 
Q 1084 2569 832 2842 
Q 581 3116 581 3541 
Q 581 4103 968 4426 
Q 1356 4750 2034 4750 
Q 2713 4750 3100 4426 
Q 3488 4103 3488 3541 
Q 3488 3116 3236 2842 
Q 2984 2569 2516 2484 
z
" id="DejaVuSerif-38" transform="scale(0.015625)"/>
       </defs>
       <use xlink:href="#DejaVuSerif-31"/>
       <use x="63.623047" xlink:href="#DejaVuSerif-38"/>
       <use x="127.246094" xlink:href="#DejaVuSerif-30"/>
      </g>
     </g>
    </g>
    <g id="ytick_8">
     <g id="line2d_27">
      <path clip-path="url(#pd3555eb5ec)" d="M 67.9625 175.718804 
L 2573.5625 175.718804 
" style="fill:none;stroke:#000000;stroke-dasharray:12.8,3.2,2,3.2;stroke-dashoffset:0;stroke-width:2;"/>
     </g>
     <g id="line2d_28"/>
     <g id="text_15">
      <!-- 190 -->
      <g transform="translate(7.2 187.11646)scale(0.3 -0.3)">
       <use xlink:href="#DejaVuSerif-31"/>
       <use x="63.623047" xlink:href="#DejaVuSerif-39"/>
       <use x="127.246094" xlink:href="#DejaVuSerif-30"/>
      </g>
     </g>
    </g>
   </g>
   <g id="line2d_29">
    <path clip-path="url(#pd3555eb5ec)" d="M 181.853409 878.092497 
L 199.979283 856.504034 
L 206.021241 875.98501 
L 212.063199 856.451864 
L 218.105157 856.357195 
L 224.147115 840.690383 
L 242.27299 853.499164 
L 248.314948 814.860846 
L 254.356906 810.431736 
L 260.398864 774.970661 
L 266.440822 745.910668 
L 284.566696 713.953765 
L 290.608654 765.451396 
L 296.650612 764.012796 
L 302.69257 756.441538 
L 308.734528 773.920446 
L 332.90236 834.714245 
L 338.944318 811.964174 
L 344.986276 787.390008 
L 351.028234 825.432562 
L 369.154108 760.278772 
L 375.196066 785.375784 
L 381.238024 736.30523 
L 387.279983 801.718066 
L 393.321941 737.548095 
L 411.447815 730.105524 
L 417.489773 756.570242 
L 423.531731 787.796526 
L 429.573689 817.474145 
L 435.615647 827.188441 
L 453.741521 770.173959 
L 459.783479 760.768316 
L 465.825437 726.256249 
L 471.867395 693.536294 
L 477.909353 694.50357 
L 496.035227 653.515074 
L 502.077185 676.167021 
L 508.119143 622.503486 
L 514.161101 639.190482 
L 520.203059 628.146418 
L 538.328934 625.461773 
L 544.370892 633.008969 
L 550.41285 613.96246 
L 556.454808 644.724725 
L 562.496766 691.276255 
L 580.62264 680.449221 
L 586.664598 700.24098 
L 592.706556 701.810828 
L 604.790472 644.375617 
L 622.916346 554.760663 
L 628.958304 577.05346 
L 635.000262 577.686149 
L 641.04222 530.854509 
L 647.084178 436.294415 
L 671.25201 408.479733 
L 677.293969 316.089046 
L 683.335927 261.977735 
L 689.377885 220.637305 
L 707.503759 281.350604 
L 713.545717 187.055169 
L 719.587675 106.180057 
L 725.629633 117.236108 
L 731.671591 151.900024 
L 749.797465 414.659495 
L 755.839423 442.266994 
L 761.881381 585.882056 
L 767.923339 537.396803 
L 773.965297 671.016644 
L 792.091171 647.777578 
L 798.133129 620.1595 
L 804.175087 621.593364 
L 810.217045 598.121359 
L 816.259003 591.439705 
L 834.384878 600.833982 
L 840.426836 612.697104 
L 846.468794 598.124088 
L 852.510752 685.551574 
L 858.55271 680.57289 
L 876.678584 660.614193 
L 882.720542 608.369404 
L 888.7625 645.610123 
L 894.804458 651.703577 
L 900.846416 660.941734 
L 925.014248 676.209976 
L 931.056206 653.07461 
L 937.098164 661.016745 
L 943.140122 654.592617 
L 961.265997 685.401667 
L 967.307955 642.104456 
L 973.349913 637.543447 
L 979.391871 646.428267 
L 985.433829 687.159386 
L 1015.643619 737.930775 
L 1027.727535 650.271909 
L 1045.853409 650.341365 
L 1051.895367 648.928082 
L 1057.937325 657.122073 
L 1063.979283 633.252642 
L 1070.021241 641.907279 
L 1088.147115 714.791778 
L 1094.189073 714.651743 
L 1100.231031 652.429034 
L 1130.440822 693.672898 
L 1136.48278 702.321151 
L 1142.524738 663.357648 
L 1172.734528 683.044438 
L 1178.776486 605.753376 
L 1184.818444 638.077014 
L 1190.860402 631.270094 
L 1196.90236 589.493567 
L 1215.028234 576.230783 
L 1221.070192 574.936171 
L 1227.11215 576.744949 
L 1233.154108 562.463637 
L 1239.196066 569.650263 
L 1257.321941 585.000643 
L 1263.363899 589.393983 
L 1269.405857 534.402069 
L 1275.447815 551.093964 
L 1281.489773 522.512937 
L 1299.615647 535.37417 
L 1305.657605 530.69584 
L 1311.699563 567.395391 
L 1317.741521 556.166575 
L 1323.783479 630.686944 
L 1341.909353 577.420874 
L 1347.951311 564.126414 
L 1353.993269 550.421793 
L 1360.035227 547.276015 
L 1366.077185 534.041148 
L 1384.203059 541.610291 
L 1390.245017 560.490097 
L 1396.286976 542.150682 
L 1402.328934 557.39695 
L 1408.370892 558.847149 
L 1438.580682 568.270757 
L 1444.62264 609.917911 
L 1450.664598 607.64538 
L 1468.790472 612.516167 
L 1474.83243 662.578678 
L 1480.874388 611.091383 
L 1486.916346 602.868477 
L 1492.958304 600.116891 
L 1511.084178 617.272876 
L 1517.126136 558.185018 
L 1523.168094 604.44592 
L 1529.210052 636.07565 
L 1535.25201 614.929822 
L 1553.377885 637.839618 
L 1559.419843 581.540754 
L 1565.461801 599.499994 
L 1571.503759 624.672545 
L 1577.545717 590.57056 
L 1595.671591 587.891354 
L 1601.713549 581.611039 
L 1607.755507 539.72713 
L 1613.797465 544.827794 
L 1619.839423 565.811303 
L 1637.965297 580.151116 
L 1644.007255 619.688588 
L 1656.091171 650.847863 
L 1662.133129 660.872103 
L 1680.259003 683.890088 
L 1686.300962 695.657075 
L 1692.34292 674.084519 
L 1722.55271 633.226308 
L 1728.594668 607.031487 
L 1734.636626 612.144689 
L 1740.678584 592.221658 
L 1746.720542 579.036606 
L 1764.846416 591.702538 
L 1770.888374 600.131908 
L 1776.930332 615.278504 
L 1782.97229 581.458728 
L 1789.014248 549.428279 
L 1807.140122 586.325043 
L 1813.18208 574.650807 
L 1819.224038 571.669384 
L 1825.265997 606.154711 
L 1831.307955 570.831981 
L 1849.433829 550.110466 
L 1855.475787 535.608701 
L 1861.517745 508.478447 
L 1867.559703 515.886816 
L 1873.601661 528.548979 
L 1891.727535 481.083966 
L 1897.769493 516.905181 
L 1903.811451 532.336742 
L 1909.853409 522.609391 
L 1915.895367 480.595851 
L 1934.021241 456.149492 
L 1940.063199 491.402786 
L 1946.105157 570.486079 
L 1952.147115 540.870172 
L 1958.189073 512.144014 
L 1976.314948 476.206326 
L 1982.356906 473.014975 
L 1988.398864 477.493901 
L 1994.440822 450.230722 
L 2000.48278 436.150128 
L 2030.69257 451.673415 
L 2036.734528 443.746218 
L 2042.776486 443.940557 
L 2060.90236 442.756905 
L 2066.944318 434.098542 
L 2072.986276 393.512432 
L 2079.028234 437.013272 
L 2085.070192 418.254263 
L 2103.196066 419.857928 
L 2109.238024 422.679191 
L 2115.279983 456.870154 
L 2121.321941 449.584267 
L 2127.363899 442.940856 
L 2145.489773 451.645579 
L 2151.531731 430.606457 
L 2157.573689 416.068774 
L 2163.615647 388.806217 
L 2169.657605 443.146931 
L 2193.825437 407.811129 
L 2199.867395 405.050809 
L 2205.909353 406.278214 
L 2211.951311 383.567455 
L 2230.077185 394.348471 
L 2236.119143 395.955407 
L 2242.161101 373.167458 
L 2248.203059 372.207725 
L 2254.245017 361.807237 
L 2272.370892 299.579629 
L 2278.41285 342.843788 
L 2284.454808 329.891959 
L 2290.496766 377.560137 
L 2314.664598 377.323061 
L 2320.706556 366.93674 
L 2326.748514 362.327169 
L 2332.790472 351.51526 
L 2338.83243 336.708489 
L 2356.958304 307.714113 
L 2363.000262 296.680375 
L 2369.04222 296.707654 
L 2375.084178 285.267924 
L 2381.126136 287.511998 
L 2399.25201 284.866201 
L 2405.293969 281.072234 
L 2411.335927 271.65675 
L 2417.377885 273.74038 
L 2423.419843 273.499003 
L 2441.545717 269.92656 
L 2447.587675 282.682244 
L 2453.629633 293.048696 
L 2459.671591 301.886203 
L 2459.671591 301.886203 
" style="fill:none;stroke:#008fd5;stroke-width:5;"/>
   </g>
   <g id="line2d_30">
    <path clip-path="url(#pd3555eb5ec)" d="M 181.853409 809.730006 
L 199.979283 804.274995 
L 206.021241 793.767997 
L 212.063199 806.803405 
L 218.105157 828.034646 
L 224.147115 851.27142 
L 242.27299 898.834946 
L 248.314948 890.842516 
L 254.356906 830.742273 
L 260.398864 859.652111 
L 266.440822 893.799343 
L 284.566696 907.343693 
L 290.608654 898.847755 
L 296.650612 868.986502 
L 302.69257 897.04548 
L 308.734528 868.017349 
L 332.90236 837.632052 
L 338.944318 846.012159 
L 344.986276 846.374551 
L 351.028234 849.040099 
L 369.154108 855.861328 
L 375.196066 871.598585 
L 381.238024 805.969015 
L 387.279983 741.888161 
L 393.321941 680.985536 
L 411.447815 620.840792 
L 417.489773 708.032489 
L 423.531731 676.075519 
L 429.573689 665.28734 
L 435.615647 657.965598 
L 453.741521 685.999089 
L 459.783479 655.686779 
L 465.825437 615.990871 
L 471.867395 613.982158 
L 477.909353 592.729106 
L 496.035227 595.291638 
L 502.077185 604.919641 
L 508.119143 575.229958 
L 514.161101 575.778149 
L 520.203059 536.947057 
L 538.328934 487.262484 
L 544.370892 450.396405 
L 550.41285 441.931079 
L 556.454808 455.771244 
L 562.496766 413.540764 
L 580.62264 324.238932 
L 586.664598 279.163476 
L 592.706556 313.576304 
L 598.748514 433.053412 
L 604.790472 456.46919 
L 622.916346 536.522739 
L 628.958304 506.85942 
L 635.000262 552.335134 
L 641.04222 551.460589 
L 647.084178 551.016459 
L 671.25201 555.347425 
L 677.293969 587.257313 
L 683.335927 588.146161 
L 689.377885 611.629115 
L 707.503759 619.061139 
L 713.545717 611.300244 
L 719.587675 612.281868 
L 725.629633 644.535207 
L 731.671591 639.289683 
L 749.797465 645.998553 
L 755.839423 607.903844 
L 761.881381 617.23161 
L 767.923339 585.14699 
L 773.965297 612.711307 
L 792.091171 612.375824 
L 798.133129 616.317416 
L 804.175087 619.830095 
L 810.217045 615.939309 
L 816.259003 606.159231 
L 834.384878 629.894776 
L 840.426836 657.16735 
L 846.468794 668.826326 
L 852.510752 683.01631 
L 858.55271 678.625539 
L 876.678584 629.015711 
L 882.720542 701.469392 
L 888.7625 727.534905 
L 894.804458 704.525044 
L 900.846416 683.967073 
L 925.014248 719.4045 
L 931.056206 710.940936 
L 937.098164 705.453791 
L 943.140122 710.714723 
L 961.265997 724.35875 
L 967.307955 712.553093 
L 973.349913 696.191634 
L 979.391871 674.992717 
L 985.433829 674.992717 
L 1015.643619 701.255074 
L 1021.685577 722.478755 
L 1027.727535 707.194856 
L 1045.853409 670.373329 
L 1051.895367 670.373329 
L 1057.937325 637.578484 
L 1063.979283 617.960675 
L 1070.021241 640.921378 
L 1088.147115 622.995399 
L 1094.189073 645.105805 
L 1100.231031 610.989934 
L 1130.440822 615.712382 
L 1136.48278 612.270787 
L 1142.524738 621.976012 
L 1172.734528 615.938724 
L 1178.776486 631.984362 
L 1184.818444 615.144243 
L 1190.860402 622.321488 
L 1196.90236 621.125746 
L 1215.028234 605.775112 
L 1221.070192 633.255543 
L 1227.11215 592.601011 
L 1233.154108 571.105072 
L 1239.196066 574.743111 
L 1257.321941 574.437466 
L 1263.363899 592.883637 
L 1269.405857 584.805667 
L 1275.447815 584.983996 
L 1281.489773 569.023609 
L 1299.615647 560.839207 
L 1305.657605 569.384694 
L 1311.699563 581.845517 
L 1317.741521 587.848531 
L 1323.783479 607.129291 
L 1341.909353 628.506999 
L 1347.951311 628.506999 
L 1353.993269 678.731247 
L 1360.035227 654.345613 
L 1366.077185 659.785956 
L 1384.203059 669.076138 
L 1390.245017 678.748586 
L 1396.286976 700.374988 
L 1402.328934 676.428495 
L 1408.370892 632.664122 
L 1438.580682 641.739223 
L 1444.62264 618.319712 
L 1450.664598 616.471469 
L 1468.790472 598.554966 
L 1474.83243 597.237009 
L 1480.874388 591.951863 
L 1486.916346 585.763423 
L 1492.958304 570.405053 
L 1511.084178 634.435011 
L 1517.126136 635.512672 
L 1523.168094 622.393411 
L 1529.210052 624.381113 
L 1535.25201 616.406727 
L 1553.377885 623.133339 
L 1559.419843 616.867614 
L 1565.461801 616.801495 
L 1571.503759 631.85133 
L 1577.545717 628.994248 
L 1595.671591 581.060643 
L 1601.713549 653.404557 
L 1607.755507 687.671834 
L 1613.797465 689.474486 
L 1619.839423 670.267059 
L 1637.965297 668.685543 
L 1644.007255 686.36483 
L 1656.091171 686.36483 
L 1662.133129 657.99912 
L 1680.259003 625.94075 
L 1686.300962 610.123864 
L 1692.34292 621.229282 
L 1722.55271 609.507707 
L 1728.594668 612.093813 
L 1734.636626 610.867485 
L 1740.678584 616.945079 
L 1746.720542 616.073405 
L 1764.846416 613.221215 
L 1770.888374 609.044472 
L 1776.930332 598.887996 
L 1782.97229 589.636679 
L 1789.014248 591.037941 
L 1807.140122 593.120515 
L 1813.18208 578.828104 
L 1819.224038 567.488192 
L 1825.265997 550.516561 
L 1831.307955 554.282471 
L 1849.433829 550.57165 
L 1855.475787 532.451867 
L 1861.517745 528.728481 
L 1867.559703 520.620993 
L 1873.601661 529.866352 
L 1891.727535 544.673335 
L 1897.769493 543.658068 
L 1903.811451 538.386155 
L 1909.853409 531.976943 
L 1915.895367 514.946755 
L 1934.021241 532.653901 
L 1940.063199 515.182701 
L 1946.105157 503.371415 
L 1952.147115 491.913499 
L 1958.189073 473.766461 
L 1976.314948 466.138741 
L 1982.356906 449.811466 
L 1988.398864 423.174507 
L 1994.440822 446.183645 
L 2000.48278 453.068533 
L 2030.69257 462.830649 
L 2036.734528 468.822635 
L 2042.776486 440.133764 
L 2060.90236 432.448773 
L 2066.944318 432.373293 
L 2072.986276 436.755545 
L 2079.028234 423.317437 
L 2085.070192 443.930359 
L 2103.196066 443.709876 
L 2109.238024 457.430167 
L 2115.279983 456.285886 
L 2121.321941 456.032877 
L 2127.363899 447.737852 
L 2145.489773 432.477478 
L 2151.531731 418.579633 
L 2157.573689 422.855523 
L 2163.615647 390.894531 
L 2169.657605 400.948327 
L 2193.825437 399.993619 
L 2199.867395 427.087757 
L 2205.909353 395.016309 
L 2211.951311 410.640511 
L 2230.077185 406.94154 
L 2236.119143 401.844919 
L 2242.161101 390.786384 
L 2248.203059 367.243934 
L 2254.245017 322.665408 
L 2272.370892 355.014864 
L 2278.41285 338.49535 
L 2284.454808 346.279948 
L 2290.496766 381.852455 
L 2314.664598 367.441884 
L 2320.706556 357.173234 
L 2326.748514 361.923261 
L 2332.790472 357.344233 
L 2338.83243 345.487556 
L 2356.958304 322.900891 
L 2363.000262 300.236967 
L 2369.04222 305.412657 
L 2375.084178 285.56575 
L 2381.126136 284.429243 
L 2399.25201 288.665404 
L 2405.293969 279.208773 
L 2411.335927 290.114312 
L 2417.377885 281.648694 
L 2423.419843 275.677271 
L 2441.545717 273.011017 
L 2447.587675 283.836704 
L 2453.629633 294.266251 
L 2459.671591 303.373631 
L 2459.671591 303.373631 
" style="fill:none;stroke:#fc4f30;stroke-width:5;"/>
   </g>
   <g id="line2d_31">
    <path clip-path="url(#pd3555eb5ec)" d="M 181.853409 849.283961 
L 199.979283 848.980002 
L 206.021241 847.770208 
L 218.105157 843.884455 
L 224.147115 842.188887 
L 242.27299 841.485936 
L 248.314948 839.848271 
L 254.356906 840.665114 
L 260.398864 835.193855 
L 266.440822 832.667446 
L 284.566696 831.277604 
L 290.608654 831.055565 
L 296.650612 828.498657 
L 302.69257 824.839069 
L 308.734528 825.037975 
L 332.90236 823.882991 
L 338.944318 822.351557 
L 344.986276 820.43778 
L 351.028234 817.145064 
L 369.154108 815.588583 
L 375.196066 814.632652 
L 381.238024 812.068082 
L 387.279983 813.217026 
L 393.321941 808.252021 
L 411.447815 806.790131 
L 417.489773 805.587703 
L 423.531731 803.597752 
L 429.573689 803.352582 
L 435.615647 797.808095 
L 453.741521 796.761404 
L 459.783479 795.465564 
L 465.825437 795.247356 
L 471.867395 782.518803 
L 477.909353 780.608857 
L 496.035227 778.073313 
L 502.077185 777.449482 
L 508.119143 777.374193 
L 514.161101 775.399123 
L 520.203059 776.804435 
L 538.328934 772.650528 
L 544.370892 771.623138 
L 550.41285 770.334959 
L 556.454808 770.304018 
L 562.496766 768.173949 
L 580.62264 767.351212 
L 586.664598 766.683033 
L 592.706556 760.178785 
L 598.748514 755.988043 
L 604.790472 756.656369 
L 622.916346 754.375573 
L 628.958304 754.280982 
L 635.000262 754.661409 
L 641.04222 752.859167 
L 647.084178 747.031202 
L 671.25201 742.324923 
L 677.293969 741.703156 
L 683.335927 739.325853 
L 689.377885 742.50777 
L 707.503759 735.714444 
L 713.545717 733.974527 
L 719.587675 732.663216 
L 725.629633 731.152999 
L 731.671591 728.066704 
L 749.797465 722.447222 
L 755.839423 720.979439 
L 761.881381 719.706878 
L 767.923339 715.962276 
L 773.965297 716.091344 
L 792.091171 715.728008 
L 798.133129 708.392036 
L 804.175087 706.387351 
L 810.217045 704.643603 
L 816.259003 703.33848 
L 834.384878 696.41977 
L 840.426836 693.799948 
L 846.468794 692.836208 
L 852.510752 692.532986 
L 858.55271 689.360351 
L 876.678584 692.745448 
L 882.720542 691.047964 
L 888.7625 683.464169 
L 894.804458 681.75195 
L 900.846416 682.784055 
L 925.014248 675.745117 
L 931.056206 673.827509 
L 937.098164 672.315376 
L 943.140122 668.985237 
L 961.265997 662.796882 
L 967.307955 662.132239 
L 973.349913 659.02458 
L 979.391871 656.808171 
L 985.433829 658.640175 
L 1015.643619 659.202565 
L 1021.685577 647.518935 
L 1027.727535 643.849623 
L 1045.853409 641.564259 
L 1051.895367 642.896049 
L 1057.937325 639.3312 
L 1063.979283 632.214172 
L 1070.021241 629.056713 
L 1094.189073 626.20616 
L 1100.231031 618.508177 
L 1130.440822 619.124493 
L 1136.48278 616.125423 
L 1142.524738 614.192345 
L 1172.734528 612.552764 
L 1178.776486 606.144434 
L 1184.818444 604.325837 
L 1190.860402 601.741819 
L 1196.90236 598.787097 
L 1215.028234 597.242255 
L 1221.070192 596.282936 
L 1227.11215 589.420951 
L 1233.154108 587.717573 
L 1239.196066 584.212396 
L 1257.321941 583.742239 
L 1263.363899 584.249819 
L 1269.405857 574.701268 
L 1275.447815 572.857035 
L 1281.489773 570.843658 
L 1299.615647 568.826597 
L 1305.657605 569.217485 
L 1311.699563 564.000532 
L 1317.741521 561.901403 
L 1323.783479 560.151761 
L 1341.909353 558.724643 
L 1347.951311 558.655394 
L 1353.993269 558.458108 
L 1360.035227 558.100813 
L 1366.077185 549.107285 
L 1384.203059 546.712596 
L 1390.245017 546.224022 
L 1396.286976 539.615459 
L 1402.328934 539.003268 
L 1408.370892 534.888847 
L 1438.580682 534.480573 
L 1444.62264 533.668592 
L 1450.664598 526.825908 
L 1468.790472 525.402178 
L 1474.83243 524.122692 
L 1480.874388 523.047418 
L 1486.916346 524.067441 
L 1492.958304 518.681343 
L 1511.084178 517.592071 
L 1517.126136 514.42695 
L 1523.168094 513.220839 
L 1529.210052 519.230178 
L 1535.25201 507.922702 
L 1553.377885 506.646164 
L 1559.419843 505.417952 
L 1565.461801 503.892264 
L 1571.503759 503.70264 
L 1577.545717 498.407155 
L 1595.671591 498.59177 
L 1601.713549 500.323289 
L 1613.797465 491.092252 
L 1619.839423 491.735383 
L 1637.965297 490.862552 
L 1644.007255 490.103465 
L 1656.091171 496.464795 
L 1662.133129 496.037956 
L 1680.259003 503.401775 
L 1686.300962 484.325742 
L 1692.34292 485.011012 
L 1722.55271 483.970067 
L 1728.594668 486.515336 
L 1734.636626 478.612995 
L 1740.678584 477.906066 
L 1746.720542 476.904755 
L 1764.846416 475.866757 
L 1770.888374 472.977748 
L 1776.930332 471.741728 
L 1782.97229 470.903668 
L 1789.014248 471.492579 
L 1807.140122 469.007866 
L 1813.18208 466.72265 
L 1819.224038 464.969029 
L 1825.265997 463.937809 
L 1831.307955 462.228685 
L 1849.433829 461.197464 
L 1855.475787 452.970538 
L 1861.517745 457.59578 
L 1867.559703 457.124593 
L 1873.601661 457.539792 
L 1891.727535 455.314984 
L 1897.769493 471.176096 
L 1903.811451 454.158968 
L 1909.853409 453.079568 
L 1915.895367 451.458405 
L 1934.021241 451.074147 
L 1940.063199 453.160751 
L 1946.105157 450.234024 
L 1952.147115 449.793482 
L 1958.189073 447.136384 
L 1976.314948 446.423856 
L 1982.356906 447.261474 
L 1988.398864 447.411465 
L 1994.440822 447.204012 
L 2000.48278 441.953171 
L 2030.69257 442.652144 
L 2036.734528 440.106875 
L 2042.776486 439.4966 
L 2060.90236 438.847722 
L 2066.944318 436.022364 
L 2072.986276 437.337947 
L 2079.028234 436.136404 
L 2085.070192 433.525422 
L 2103.196066 433.270527 
L 2109.238024 430.885415 
L 2121.321941 429.606961 
L 2127.363899 426.704397 
L 2145.489773 428.087167 
L 2151.531731 425.848951 
L 2157.573689 424.794451 
L 2163.615647 425.807991 
L 2169.657605 426.075999 
L 2205.909353 422.474757 
L 2211.951311 422.067662 
L 2230.077185 421.754715 
L 2236.119143 420.122944 
L 2242.161101 418.275027 
L 2248.203059 417.182514 
L 2254.245017 422.826159 
L 2272.370892 414.862378 
L 2278.41285 414.151618 
L 2284.454808 413.813772 
L 2290.496766 412.71507 
L 2314.664598 415.49387 
L 2320.706556 410.706408 
L 2326.748514 410.283547 
L 2338.83243 408.867479 
L 2356.958304 410.808808 
L 2363.000262 406.643702 
L 2369.04222 406.220252 
L 2375.084178 405.617786 
L 2381.126136 404.775895 
L 2399.25201 407.737689 
L 2405.293969 402.713159 
L 2411.335927 401.515888 
L 2417.377885 400.820599 
L 2423.419843 401.739843 
L 2441.545717 398.586214 
L 2447.587675 397.402057 
L 2453.629633 397.208159 
L 2459.671591 395.52924 
L 2459.671591 395.52924 
" style="fill:none;stroke:#e5ae38;stroke-width:5;"/>
   </g>
   <g id="patch_3">
    <path d="M 67.9625 947.401875 
L 67.9625 66.121875 
" style="fill:none;stroke:#f0f0f0;stroke-linecap:square;stroke-linejoin:miter;stroke-width:3;"/>
   </g>
   <g id="patch_4">
    <path d="M 2573.5625 947.401875 
L 2573.5625 66.121875 
" style="fill:none;stroke:#f0f0f0;stroke-linecap:square;stroke-linejoin:miter;stroke-width:3;"/>
   </g>
   <g id="patch_5">
    <path d="M 67.9625 947.401875 
L 2573.5625 947.401875 
" style="fill:none;stroke:#f0f0f0;stroke-linecap:square;stroke-linejoin:miter;stroke-width:3;"/>
   </g>
   <g id="patch_6">
    <path d="M 67.9625 66.121875 
L 2573.5625 66.121875 
" style="fill:none;stroke:#f0f0f0;stroke-linecap:square;stroke-linejoin:miter;stroke-width:3;"/>
   </g>
   <g id="text_16">
    <!-- Exchange Rates Argentina -->
    <g transform="translate(875.389063 52.790625)scale(0.6 -0.6)">
     <defs>
      <path d="M 300 0 
L 300 378 
L 897 378 
L 897 4288 
L 300 4288 
L 300 4666 
L 4494 4666 
L 4494 3566 
L 4063 3566 
L 4063 4238 
L 2100 4238 
L 2100 2741 
L 3322 2741 
L 3322 3334 
L 3750 3334 
L 3750 1722 
L 3322 1722 
L 3322 2316 
L 2100 2316 
L 2100 428 
L 4122 428 
L 4122 1100 
L 4550 1100 
L 4550 0 
L 300 0 
z
" id="DejaVuSerif-Bold-45" transform="scale(0.015625)"/>
      <path d="M 2247 2119 
L 2834 2944 
L 2425 2944 
L 2425 3322 
L 3719 3322 
L 3719 2944 
L 3278 2944 
L 2431 1759 
L 3419 378 
L 3859 378 
L 3859 0 
L 1747 0 
L 1747 378 
L 2175 378 
L 1550 1253 
L 922 378 
L 1369 378 
L 1369 0 
L 0 0 
L 0 378 
L 475 378 
L 1356 1619 
L 403 2944 
L 31 2944 
L 31 3322 
L 2059 3322 
L 2059 2944 
L 1656 2944 
L 2247 2119 
z
" id="DejaVuSerif-Bold-78" transform="scale(0.015625)"/>
      <path d="M 3609 1038 
Q 3491 469 3123 189 
Q 2756 -91 2125 -91 
Q 1238 -91 750 368 
Q 263 828 263 1663 
Q 263 2488 744 2950 
Q 1225 3413 2081 3413 
Q 2428 3413 2781 3347 
Q 3134 3281 3500 3150 
L 3500 2228 
L 3150 2228 
Q 3100 2650 2903 2854 
Q 2706 3059 2350 3059 
Q 1888 3059 1692 2746 
Q 1497 2434 1497 1663 
Q 1497 909 1687 586 
Q 1878 263 2309 263 
Q 2644 263 2845 463 
Q 3047 663 3091 1038 
L 3609 1038 
z
" id="DejaVuSerif-Bold-63" transform="scale(0.015625)"/>
      <path d="M 219 0 
L 219 378 
L 691 378 
L 691 4488 
L 197 4488 
L 197 4863 
L 1797 4863 
L 1797 2853 
Q 1997 3150 2253 3281 
Q 2509 3413 2900 3413 
Q 3459 3413 3745 3083 
Q 4031 2753 4031 2113 
L 4031 378 
L 4506 378 
L 4506 0 
L 2522 0 
L 2522 378 
L 2925 378 
L 2925 2144 
Q 2925 2566 2817 2730 
Q 2709 2894 2444 2894 
Q 2109 2894 1953 2648 
Q 1797 2403 1797 1869 
L 1797 378 
L 2203 378 
L 2203 0 
L 219 0 
z
" id="DejaVuSerif-Bold-68" transform="scale(0.015625)"/>
      <path d="M 3525 2041 
L 3525 378 
L 4000 378 
L 4000 0 
L 2419 0 
L 2419 422 
Q 2200 159 1931 34 
Q 1663 -91 1319 -91 
Q 809 -91 536 182 
Q 263 456 263 966 
Q 263 1525 655 1803 
Q 1047 2081 1838 2081 
L 2419 2081 
L 2419 2278 
Q 2419 2681 2228 2873 
Q 2038 3066 1638 3066 
Q 1306 3066 1126 2930 
Q 947 2794 872 2484 
L 519 2484 
L 519 3200 
Q 816 3306 1134 3359 
Q 1453 3413 1806 3413 
Q 2697 3413 3111 3081 
Q 3525 2750 3525 2041 
z
M 2419 1044 
L 2419 1709 
L 2003 1709 
Q 1694 1709 1528 1540 
Q 1363 1372 1363 1056 
Q 1363 741 1483 584 
Q 1603 428 1850 428 
Q 2106 428 2262 597 
Q 2419 766 2419 1044 
z
" id="DejaVuSerif-Bold-61" transform="scale(0.015625)"/>
      <path d="M 219 0 
L 219 378 
L 691 378 
L 691 2944 
L 219 2944 
L 219 3322 
L 1797 3322 
L 1797 2853 
Q 1997 3150 2253 3281 
Q 2509 3413 2900 3413 
Q 3459 3413 3745 3083 
Q 4031 2753 4031 2113 
L 4031 378 
L 4506 378 
L 4506 0 
L 2522 0 
L 2522 378 
L 2925 378 
L 2925 2144 
Q 2925 2566 2817 2730 
Q 2709 2894 2444 2894 
Q 2109 2894 1953 2648 
Q 1797 2403 1797 1869 
L 1797 378 
L 2203 378 
L 2203 0 
L 219 0 
z
" id="DejaVuSerif-Bold-6e" transform="scale(0.015625)"/>
      <path d="M 3853 2944 
L 3853 44 
Q 3853 -656 3354 -1039 
Q 2856 -1422 1947 -1422 
Q 1616 -1422 1275 -1370 
Q 934 -1319 575 -1216 
L 575 -422 
L 928 -422 
Q 975 -750 1192 -909 
Q 1409 -1069 1813 -1069 
Q 2325 -1069 2536 -823 
Q 2747 -578 2747 44 
L 2747 422 
Q 2606 163 2367 36 
Q 2128 -91 1778 -91 
Q 1072 -91 667 378 
Q 263 847 263 1663 
Q 263 2481 667 2947 
Q 1072 3413 1778 3413 
Q 2128 3413 2367 3286 
Q 2606 3159 2747 2900 
L 2747 3322 
L 4325 3322 
L 4325 2944 
L 3853 2944 
z
M 2747 1825 
Q 2747 2406 2597 2665 
Q 2447 2925 2119 2925 
Q 1775 2925 1636 2651 
Q 1497 2378 1497 1663 
Q 1497 947 1637 672 
Q 1778 397 2119 397 
Q 2447 397 2597 656 
Q 2747 916 2747 1497 
L 2747 1825 
z
" id="DejaVuSerif-Bold-67" transform="scale(0.015625)"/>
      <path d="M 2566 1875 
Q 2566 2531 2444 2795 
Q 2322 3059 2028 3059 
Q 1744 3059 1620 2800 
Q 1497 2541 1497 1931 
L 1497 1875 
L 2566 1875 
z
M 3781 1503 
L 1497 1503 
L 1497 1478 
Q 1497 834 1690 548 
Q 1884 263 2316 263 
Q 2675 263 2897 453 
Q 3119 644 3181 1006 
L 3700 1006 
Q 3566 441 3166 175 
Q 2766 -91 2047 -91 
Q 1184 -91 723 364 
Q 263 819 263 1663 
Q 263 2488 734 2950 
Q 1206 3413 2047 3413 
Q 2872 3413 3312 2927 
Q 3753 2441 3781 1503 
z
" id="DejaVuSerif-Bold-65" transform="scale(0.015625)"/>
      <path id="DejaVuSerif-Bold-20" transform="scale(0.015625)"/>
      <path d="M 3397 2278 
Q 3675 2238 3865 2094 
Q 4056 1950 4197 1678 
L 4878 378 
L 5356 378 
L 5356 0 
L 3822 0 
L 3078 1409 
Q 2863 1847 2711 1967 
Q 2559 2088 2291 2088 
L 2100 2088 
L 2100 378 
L 2700 378 
L 2700 0 
L 300 0 
L 300 378 
L 897 378 
L 897 4288 
L 300 4288 
L 300 4666 
L 2963 4666 
Q 3775 4666 4217 4339 
Q 4659 4013 4659 3413 
Q 4659 2925 4345 2642 
Q 4031 2359 3397 2278 
z
M 2100 2463 
L 2509 2463 
Q 2947 2463 3183 2700 
Q 3419 2938 3419 3378 
Q 3419 3819 3183 4053 
Q 2947 4288 2509 4288 
L 2100 4288 
L 2100 2463 
z
" id="DejaVuSerif-Bold-52" transform="scale(0.015625)"/>
      <path d="M 634 2944 
L 153 2944 
L 153 3322 
L 634 3322 
L 634 4353 
L 1741 4353 
L 1741 3322 
L 2663 3322 
L 2663 2944 
L 1741 2944 
L 1741 909 
Q 1741 475 1809 369 
Q 1878 263 2059 263 
Q 2259 263 2356 397 
Q 2453 531 2459 813 
L 2925 813 
Q 2897 313 2651 111 
Q 2406 -91 1806 -91 
Q 1122 -91 878 123 
Q 634 338 634 909 
L 634 2944 
z
" id="DejaVuSerif-Bold-74" transform="scale(0.015625)"/>
      <path d="M 300 97 
L 300 1025 
L 653 1025 
Q 697 653 931 458 
Q 1166 263 1569 263 
Q 1906 263 2086 380 
Q 2266 497 2266 716 
Q 2266 916 2152 1025 
Q 2038 1134 1709 1216 
L 1253 1331 
Q 738 1459 506 1698 
Q 275 1938 275 2344 
Q 275 2884 650 3148 
Q 1025 3413 1806 3413 
Q 2100 3413 2433 3364 
Q 2766 3316 3169 3213 
L 3169 2375 
L 2816 2375 
Q 2788 2716 2573 2887 
Q 2359 3059 1959 3059 
Q 1622 3059 1448 2951 
Q 1275 2844 1275 2638 
Q 1275 2469 1375 2372 
Q 1475 2275 1734 2209 
L 2188 2094 
Q 2841 1928 3091 1684 
Q 3341 1441 3341 1006 
Q 3341 444 2939 176 
Q 2538 -91 1691 -91 
Q 1381 -91 1034 -44 
Q 688 3 300 97 
z
" id="DejaVuSerif-Bold-73" transform="scale(0.015625)"/>
      <path d="M -50 0 
L -50 378 
L 331 378 
L 2088 4666 
L 2834 4666 
L 4594 378 
L 5038 378 
L 5038 0 
L 2853 0 
L 2853 378 
L 3309 378 
L 2925 1331 
L 1172 1331 
L 781 378 
L 1338 378 
L 1338 0 
L -50 0 
z
M 1325 1709 
L 2772 1709 
L 2053 3494 
L 1325 1709 
z
" id="DejaVuSerif-Bold-41" transform="scale(0.015625)"/>
      <path d="M 3438 3359 
L 3438 2369 
L 3084 2369 
Q 3066 2634 2941 2764 
Q 2816 2894 2578 2894 
Q 2216 2894 2006 2575 
Q 1797 2256 1797 1691 
L 1797 378 
L 2400 378 
L 2400 0 
L 219 0 
L 219 378 
L 691 378 
L 691 2944 
L 184 2944 
L 184 3322 
L 1797 3322 
L 1797 2731 
Q 1959 3078 2226 3245 
Q 2494 3413 2881 3413 
Q 2978 3413 3117 3398 
Q 3256 3384 3438 3359 
z
" id="DejaVuSerif-Bold-72" transform="scale(0.015625)"/>
      <path d="M 588 4263 
Q 588 4516 763 4689 
Q 938 4863 1191 4863 
Q 1438 4863 1611 4689 
Q 1784 4516 1784 4263 
Q 1784 4016 1611 3842 
Q 1438 3669 1191 3669 
Q 938 3669 763 3841 
Q 588 4013 588 4263 
z
M 1797 378 
L 2272 378 
L 2272 0 
L 219 0 
L 219 378 
L 691 378 
L 691 2944 
L 219 2944 
L 219 3322 
L 1797 3322 
L 1797 378 
z
" id="DejaVuSerif-Bold-69" transform="scale(0.015625)"/>
     </defs>
     <use xlink:href="#DejaVuSerif-Bold-45"/>
     <use x="76.220703" xlink:href="#DejaVuSerif-Bold-78"/>
     <use x="135.839844" xlink:href="#DejaVuSerif-Bold-63"/>
     <use x="196.728516" xlink:href="#DejaVuSerif-Bold-68"/>
     <use x="269.433594" xlink:href="#DejaVuSerif-Bold-61"/>
     <use x="334.228516" xlink:href="#DejaVuSerif-Bold-6e"/>
     <use x="406.933594" xlink:href="#DejaVuSerif-Bold-67"/>
     <use x="476.855469" xlink:href="#DejaVuSerif-Bold-65"/>
     <use x="540.478516" xlink:href="#DejaVuSerif-Bold-20"/>
     <use x="575.292969" xlink:href="#DejaVuSerif-Bold-52"/>
     <use x="660.648438" xlink:href="#DejaVuSerif-Bold-61"/>
     <use x="725.443359" xlink:href="#DejaVuSerif-Bold-74"/>
     <use x="771.634766" xlink:href="#DejaVuSerif-Bold-65"/>
     <use x="835.257812" xlink:href="#DejaVuSerif-Bold-73"/>
     <use x="891.556641" xlink:href="#DejaVuSerif-Bold-20"/>
     <use x="926.371094" xlink:href="#DejaVuSerif-Bold-41"/>
     <use x="1003.958984" xlink:href="#DejaVuSerif-Bold-72"/>
     <use x="1056.644531" xlink:href="#DejaVuSerif-Bold-67"/>
     <use x="1126.566406" xlink:href="#DejaVuSerif-Bold-65"/>
     <use x="1190.189453" xlink:href="#DejaVuSerif-Bold-6e"/>
     <use x="1262.894531" xlink:href="#DejaVuSerif-Bold-74"/>
     <use x="1309.085938" xlink:href="#DejaVuSerif-Bold-69"/>
     <use x="1347.074219" xlink:href="#DejaVuSerif-Bold-6e"/>
     <use x="1419.779297" xlink:href="#DejaVuSerif-Bold-61"/>
    </g>
   </g>
   <g id="legend_1">
    <g id="patch_7">
     <path d="M 2601.5625 600.830625 
L 3205.525 600.830625 
Q 3213.525 600.830625 3213.525 592.830625 
L 3213.525 420.693125 
Q 3213.525 412.693125 3205.525 412.693125 
L 2601.5625 412.693125 
Q 2593.5625 412.693125 2593.5625 420.693125 
L 2593.5625 592.830625 
Q 2593.5625 600.830625 2601.5625 600.830625 
z
" style="fill:#f0f0f0;opacity:0.8;stroke:#cccccc;stroke-linejoin:miter;stroke-width:0.5;"/>
    </g>
    <g id="line2d_32">
     <path d="M 2609.5625 445.086875 
L 2689.5625 445.086875 
" style="fill:none;stroke:#008fd5;stroke-width:5;"/>
    </g>
    <g id="line2d_33"/>
    <g id="text_17">
     <!-- Cedears Rate $ 178.53 -->
     <g transform="translate(2721.5625 459.086875)scale(0.4 -0.4)">
      <defs>
       <path d="M 4513 1234 
Q 4306 581 3820 245 
Q 3334 -91 2591 -91 
Q 2134 -91 1743 65 
Q 1353 222 1050 525 
Q 700 875 529 1320 
Q 359 1766 359 2328 
Q 359 3416 987 4083 
Q 1616 4750 2644 4750 
Q 3025 4750 3456 4650 
Q 3888 4550 4384 4347 
L 4384 3272 
L 4031 3272 
Q 3916 3859 3567 4137 
Q 3219 4416 2591 4416 
Q 1844 4416 1459 3886 
Q 1075 3356 1075 2328 
Q 1075 1303 1459 773 
Q 1844 244 2591 244 
Q 3113 244 3450 492 
Q 3788 741 3938 1234 
L 4513 1234 
z
" id="DejaVuSerif-43" transform="scale(0.015625)"/>
       <path d="M 3359 331 
L 3909 331 
L 3909 0 
L 2784 0 
L 2784 519 
Q 2616 206 2355 57 
Q 2094 -91 1709 -91 
Q 1097 -91 708 395 
Q 319 881 319 1663 
Q 319 2444 706 2928 
Q 1094 3413 1709 3413 
Q 2094 3413 2355 3264 
Q 2616 3116 2784 2803 
L 2784 4531 
L 2241 4531 
L 2241 4863 
L 3359 4863 
L 3359 331 
z
M 2784 1497 
L 2784 1825 
Q 2784 2422 2554 2737 
Q 2325 3053 1888 3053 
Q 1444 3053 1217 2703 
Q 991 2353 991 1663 
Q 991 975 1217 622 
Q 1444 269 1888 269 
Q 2325 269 2554 583 
Q 2784 897 2784 1497 
z
" id="DejaVuSerif-64" transform="scale(0.015625)"/>
       <path d="M 3059 3328 
L 3059 2497 
L 2728 2497 
Q 2713 2744 2591 2866 
Q 2469 2988 2234 2988 
Q 1809 2988 1582 2694 
Q 1356 2400 1356 1850 
L 1356 331 
L 2022 331 
L 2022 0 
L 263 0 
L 263 331 
L 781 331 
L 781 2994 
L 231 2994 
L 231 3322 
L 1356 3322 
L 1356 2731 
Q 1525 3078 1790 3245 
Q 2056 3413 2438 3413 
Q 2578 3413 2733 3391 
Q 2888 3369 3059 3328 
z
" id="DejaVuSerif-72" transform="scale(0.015625)"/>
       <path d="M 359 184 
L 359 959 
L 691 959 
Q 703 588 923 403 
Q 1144 219 1575 219 
Q 1963 219 2166 364 
Q 2369 509 2369 788 
Q 2369 1006 2220 1140 
Q 2072 1275 1594 1428 
L 1178 1569 
Q 750 1706 558 1912 
Q 366 2119 366 2438 
Q 366 2894 700 3153 
Q 1034 3413 1625 3413 
Q 1888 3413 2178 3344 
Q 2469 3275 2778 3144 
L 2778 2419 
L 2447 2419 
Q 2434 2741 2221 2922 
Q 2009 3103 1644 3103 
Q 1281 3103 1095 2975 
Q 909 2847 909 2591 
Q 909 2381 1050 2254 
Q 1191 2128 1613 1997 
L 2069 1856 
Q 2541 1709 2748 1489 
Q 2956 1269 2956 922 
Q 2956 450 2595 179 
Q 2234 -91 1600 -91 
Q 1278 -91 972 -22 
Q 666 47 359 184 
z
" id="DejaVuSerif-73" transform="scale(0.015625)"/>
       <path id="DejaVuSerif-20" transform="scale(0.015625)"/>
       <path d="M 3066 2316 
Q 3284 2256 3442 2114 
Q 3600 1972 3725 1716 
L 4403 331 
L 4972 331 
L 4972 0 
L 3872 0 
L 3144 1484 
Q 2934 1916 2759 2042 
Q 2584 2169 2278 2169 
L 1581 2169 
L 1581 331 
L 2241 331 
L 2241 0 
L 353 0 
L 353 331 
L 947 331 
L 947 4331 
L 353 4331 
L 353 4666 
L 2719 4666 
Q 3400 4666 3770 4341 
Q 4141 4016 4141 3419 
Q 4141 2938 3870 2661 
Q 3600 2384 3066 2316 
z
M 1581 2503 
L 2503 2503 
Q 2975 2503 3200 2726 
Q 3425 2950 3425 3419 
Q 3425 3888 3200 4109 
Q 2975 4331 2503 4331 
L 1581 4331 
L 1581 2503 
z
" id="DejaVuSerif-52" transform="scale(0.015625)"/>
       <path d="M 2156 213 
Q 2509 244 2695 416 
Q 2881 588 2881 884 
Q 2881 1153 2697 1340 
Q 2513 1528 2156 1625 
L 2156 213 
z
M 1844 3709 
Q 1522 3688 1344 3523 
Q 1166 3359 1166 3084 
Q 1166 2834 1330 2668 
Q 1494 2503 1844 2400 
L 1844 3709 
z
M 550 225 
L 550 1088 
L 888 1088 
Q 900 659 1137 440 
Q 1375 222 1844 213 
L 1844 1728 
Q 1125 1928 834 2189 
Q 544 2450 544 2881 
Q 544 3381 887 3684 
Q 1231 3988 1844 4025 
L 1844 4863 
L 2156 4863 
L 2156 4025 
Q 2472 4000 2764 3923 
Q 3056 3847 3334 3719 
L 3334 2900 
L 2994 2900 
Q 2956 3263 2740 3472 
Q 2525 3681 2156 3709 
L 2156 2297 
Q 2925 2088 3233 1817 
Q 3541 1547 3541 1094 
Q 3541 575 3178 262 
Q 2816 -50 2156 -97 
L 2156 -941 
L 1844 -941 
L 1844 -97 
Q 1544 -91 1222 -11 
Q 900 69 550 225 
z
" id="DejaVuSerif-24" transform="scale(0.015625)"/>
       <path d="M 603 325 
Q 603 500 722 622 
Q 841 744 1019 744 
Q 1191 744 1312 622 
Q 1434 500 1434 325 
Q 1434 153 1312 31 
Q 1191 -91 1019 -91 
Q 841 -91 722 29 
Q 603 150 603 325 
z
" id="DejaVuSerif-2e" transform="scale(0.015625)"/>
      </defs>
      <use xlink:href="#DejaVuSerif-43"/>
      <use x="76.513672" xlink:href="#DejaVuSerif-65"/>
      <use x="135.693359" xlink:href="#DejaVuSerif-64"/>
      <use x="199.707031" xlink:href="#DejaVuSerif-65"/>
      <use x="258.886719" xlink:href="#DejaVuSerif-61"/>
      <use x="318.505859" xlink:href="#DejaVuSerif-72"/>
      <use x="366.308594" xlink:href="#DejaVuSerif-73"/>
      <use x="417.626953" xlink:href="#DejaVuSerif-20"/>
      <use x="449.414062" xlink:href="#DejaVuSerif-52"/>
      <use x="526.957031" xlink:href="#DejaVuSerif-61"/>
      <use x="586.576172" xlink:href="#DejaVuSerif-74"/>
      <use x="626.761719" xlink:href="#DejaVuSerif-65"/>
      <use x="685.941406" xlink:href="#DejaVuSerif-20"/>
      <use x="717.728516" xlink:href="#DejaVuSerif-24"/>
      <use x="781.351562" xlink:href="#DejaVuSerif-20"/>
      <use x="813.138672" xlink:href="#DejaVuSerif-31"/>
      <use x="876.761719" xlink:href="#DejaVuSerif-37"/>
      <use x="940.384766" xlink:href="#DejaVuSerif-38"/>
      <use x="1004.007812" xlink:href="#DejaVuSerif-2e"/>
      <use x="1035.794922" xlink:href="#DejaVuSerif-35"/>
      <use x="1099.417969" xlink:href="#DejaVuSerif-33"/>
     </g>
    </g>
    <g id="line2d_34">
     <path d="M 2609.5625 503.799375 
L 2689.5625 503.799375 
" style="fill:none;stroke:#fc4f30;stroke-width:5;"/>
    </g>
    <g id="line2d_35"/>
    <g id="text_18">
     <!-- ADRs Rate      $ 178.4 -->
     <g transform="translate(2721.5625 517.799375)scale(0.4 -0.4)">
      <defs>
       <path d="M 1281 1691 
L 2994 1691 
L 2138 3909 
L 1281 1691 
z
M -38 0 
L -38 331 
L 372 331 
L 2034 4666 
L 2559 4666 
L 4225 331 
L 4684 331 
L 4684 0 
L 2988 0 
L 2988 331 
L 3506 331 
L 3116 1356 
L 1153 1356 
L 763 331 
L 1275 331 
L 1275 0 
L -38 0 
z
" id="DejaVuSerif-41" transform="scale(0.015625)"/>
      </defs>
      <use xlink:href="#DejaVuSerif-41"/>
      <use x="72.216797" xlink:href="#DejaVuSerif-44"/>
      <use x="152.392578" xlink:href="#DejaVuSerif-52"/>
      <use x="227.685547" xlink:href="#DejaVuSerif-73"/>
      <use x="279.003906" xlink:href="#DejaVuSerif-20"/>
      <use x="310.791016" xlink:href="#DejaVuSerif-52"/>
      <use x="388.333984" xlink:href="#DejaVuSerif-61"/>
      <use x="447.953125" xlink:href="#DejaVuSerif-74"/>
      <use x="488.138672" xlink:href="#DejaVuSerif-65"/>
      <use x="547.318359" xlink:href="#DejaVuSerif-20"/>
      <use x="579.105469" xlink:href="#DejaVuSerif-20"/>
      <use x="610.892578" xlink:href="#DejaVuSerif-20"/>
      <use x="642.679688" xlink:href="#DejaVuSerif-20"/>
      <use x="674.466797" xlink:href="#DejaVuSerif-20"/>
      <use x="706.253906" xlink:href="#DejaVuSerif-20"/>
      <use x="738.041016" xlink:href="#DejaVuSerif-24"/>
      <use x="801.664062" xlink:href="#DejaVuSerif-20"/>
      <use x="833.451172" xlink:href="#DejaVuSerif-31"/>
      <use x="897.074219" xlink:href="#DejaVuSerif-37"/>
      <use x="960.697266" xlink:href="#DejaVuSerif-38"/>
      <use x="1024.320312" xlink:href="#DejaVuSerif-2e"/>
      <use x="1056.107422" xlink:href="#DejaVuSerif-34"/>
     </g>
    </g>
    <g id="line2d_36">
     <path d="M 2609.5625 562.511875 
L 2689.5625 562.511875 
" style="fill:none;stroke:#e5ae38;stroke-width:5;"/>
    </g>
    <g id="line2d_37"/>
    <g id="text_19">
     <!-- Dollar+Taxes  $ 170.02 -->
     <g transform="translate(2721.5625 576.511875)scale(0.4 -0.4)">
      <defs>
       <path d="M 1925 219 
Q 2388 219 2623 584 
Q 2859 950 2859 1663 
Q 2859 2375 2623 2739 
Q 2388 3103 1925 3103 
Q 1463 3103 1227 2739 
Q 991 2375 991 1663 
Q 991 950 1228 584 
Q 1466 219 1925 219 
z
M 1925 -91 
Q 1200 -91 759 389 
Q 319 869 319 1663 
Q 319 2456 758 2934 
Q 1197 3413 1925 3413 
Q 2653 3413 3092 2934 
Q 3531 2456 3531 1663 
Q 3531 869 3092 389 
Q 2653 -91 1925 -91 
z
" id="DejaVuSerif-6f" transform="scale(0.015625)"/>
       <path d="M 1313 331 
L 1856 331 
L 1856 0 
L 184 0 
L 184 331 
L 738 331 
L 738 4531 
L 184 4531 
L 184 4863 
L 1313 4863 
L 1313 331 
z
" id="DejaVuSerif-6c" transform="scale(0.015625)"/>
       <path d="M 2931 4013 
L 2931 2259 
L 4684 2259 
L 4684 1753 
L 2931 1753 
L 2931 0 
L 2431 0 
L 2431 1753 
L 678 1753 
L 678 2259 
L 2431 2259 
L 2431 4013 
L 2931 4013 
z
" id="DejaVuSerif-2b" transform="scale(0.015625)"/>
       <path d="M 1222 0 
L 1222 331 
L 1819 331 
L 1819 4294 
L 447 4294 
L 447 3566 
L 63 3566 
L 63 4666 
L 4206 4666 
L 4206 3566 
L 3822 3566 
L 3822 4294 
L 2450 4294 
L 2450 331 
L 3047 331 
L 3047 0 
L 1222 0 
z
" id="DejaVuSerif-54" transform="scale(0.015625)"/>
       <path d="M 1863 2028 
L 2559 2988 
L 2113 2988 
L 2113 3322 
L 3391 3322 
L 3391 2988 
L 2950 2988 
L 2059 1759 
L 3097 331 
L 3531 331 
L 3531 0 
L 1997 0 
L 1997 331 
L 2419 331 
L 1697 1325 
L 972 331 
L 1403 331 
L 1403 0 
L 141 0 
L 141 331 
L 581 331 
L 1497 1594 
L 488 2988 
L 78 2988 
L 78 3322 
L 1563 3322 
L 1563 2988 
L 1166 2988 
L 1863 2028 
z
" id="DejaVuSerif-78" transform="scale(0.015625)"/>
      </defs>
      <use xlink:href="#DejaVuSerif-44"/>
      <use x="80.175781" xlink:href="#DejaVuSerif-6f"/>
      <use x="140.380859" xlink:href="#DejaVuSerif-6c"/>
      <use x="172.363281" xlink:href="#DejaVuSerif-6c"/>
      <use x="204.345703" xlink:href="#DejaVuSerif-61"/>
      <use x="263.964844" xlink:href="#DejaVuSerif-72"/>
      <use x="311.767578" xlink:href="#DejaVuSerif-2b"/>
      <use x="395.556641" xlink:href="#DejaVuSerif-54"/>
      <use x="454.505859" xlink:href="#DejaVuSerif-61"/>
      <use x="514.125" xlink:href="#DejaVuSerif-78"/>
      <use x="570.521484" xlink:href="#DejaVuSerif-65"/>
      <use x="629.701172" xlink:href="#DejaVuSerif-73"/>
      <use x="681.019531" xlink:href="#DejaVuSerif-20"/>
      <use x="712.806641" xlink:href="#DejaVuSerif-20"/>
      <use x="744.59375" xlink:href="#DejaVuSerif-24"/>
      <use x="808.216797" xlink:href="#DejaVuSerif-20"/>
      <use x="840.003906" xlink:href="#DejaVuSerif-31"/>
      <use x="903.626953" xlink:href="#DejaVuSerif-37"/>
      <use x="967.25" xlink:href="#DejaVuSerif-30"/>
      <use x="1030.873047" xlink:href="#DejaVuSerif-2e"/>
      <use x="1062.660156" xlink:href="#DejaVuSerif-30"/>
      <use x="1126.283203" xlink:href="#DejaVuSerif-32"/>
     </g>
    </g>
   </g>
  </g>
 </g>
 <defs>
  <clipPath id="pd3555eb5ec">
   <rect height="881.28" width="2505.6" x="67.9625" y="66.121875"/>
  </clipPath>
 </defs>
</svg>
