<?xml version="1.0" encoding="utf-8" standalone="no"?>
<!DOCTYPE svg PUBLIC "-//W3C//DTD SVG 1.1//EN"
  "http://www.w3.org/Graphics/SVG/1.1/DTD/svg11.dtd">
<svg height="1065.837663pt" version="1.1" viewBox="0 0 3210.990625 1065.837663" width="3210.990625pt" xmlns="http://www.w3.org/2000/svg" xmlns:xlink="http://www.w3.org/1999/xlink">
 <metadata>
  <rdf:RDF xmlns:cc="http://creativecommons.org/ns#" xmlns:dc="http://purl.org/dc/elements/1.1/" xmlns:rdf="http://www.w3.org/1999/02/22-rdf-syntax-ns#">
   <cc:Work>
    <dc:type rdf:resource="http://purl.org/dc/dcmitype/StillImage"/>
    <dc:date>2021-08-05T16:10:24.910899</dc:date>
    <dc:format>image/svg+xml</dc:format>
    <dc:creator>
     <cc:Agent>
      <dc:title>Matplotlib v3.4.2, https://matplotlib.org/</dc:title>
     </cc:Agent>
    </dc:creator>
   </cc:Work>
  </rdf:RDF>
 </metadata>
 <defs>
  <style type="text/css">*{stroke-linecap:butt;stroke-linejoin:round;}</style>
 </defs>
 <g id="figure_1">
  <g id="patch_1">
   <path d="M 0 1065.837663 
L 3210.990625 1065.837663 
L 3210.990625 0 
L 0 0 
z
" style="fill:#f0f0f0;"/>
  </g>
  <g id="axes_1">
   <g id="patch_2">
    <path d="M 58.409375 947.401875 
L 2564.009375 947.401875 
L 2564.009375 66.121875 
L 58.409375 66.121875 
z
" style="fill:#f0f0f0;"/>
   </g>
   <g id="matplotlib.axis_1">
    <g id="xtick_1">
     <g id="line2d_1">
      <path clip-path="url(#pf56a5cac48)" d="M 391.55551 947.401875 
L 391.55551 66.121875 
" style="fill:none;stroke:#000000;stroke-dasharray:12.8,3.2,2,3.2;stroke-dashoffset:0;stroke-width:2;"/>
     </g>
     <g id="line2d_2"/>
     <g id="text_1">
      <!-- 2020-09 -->
      <g transform="translate(280.473734 1032.975226)rotate(-30)scale(0.3 -0.3)">
       <defs>
        <path d="M 819 3553 
L 469 3553 
L 469 4384 
Q 803 4563 1142 4656 
Q 1481 4750 1806 4750 
Q 2534 4750 2956 4397 
Q 3378 4044 3378 3438 
Q 3378 2753 2422 1800 
Q 2347 1728 2309 1691 
L 1131 513 
L 3078 513 
L 3078 1088 
L 3444 1088 
L 3444 0 
L 434 0 
L 434 341 
L 1850 1753 
Q 2319 2222 2519 2614 
Q 2719 3006 2719 3438 
Q 2719 3909 2473 4175 
Q 2228 4441 1797 4441 
Q 1350 4441 1106 4219 
Q 863 3997 819 3553 
z
" id="DejaVuSerif-32" transform="scale(0.015625)"/>
        <path d="M 2034 219 
Q 2513 219 2750 744 
Q 2988 1269 2988 2328 
Q 2988 3391 2750 3916 
Q 2513 4441 2034 4441 
Q 1556 4441 1318 3916 
Q 1081 3391 1081 2328 
Q 1081 1269 1318 744 
Q 1556 219 2034 219 
z
M 2034 -91 
Q 1275 -91 848 546 
Q 422 1184 422 2328 
Q 422 3475 848 4112 
Q 1275 4750 2034 4750 
Q 2797 4750 3222 4112 
Q 3647 3475 3647 2328 
Q 3647 1184 3222 546 
Q 2797 -91 2034 -91 
z
" id="DejaVuSerif-30" transform="scale(0.015625)"/>
        <path d="M 281 1959 
L 1881 1959 
L 1881 1472 
L 281 1472 
L 281 1959 
z
" id="DejaVuSerif-2d" transform="scale(0.015625)"/>
        <path d="M 2994 2091 
Q 2784 1856 2512 1740 
Q 2241 1625 1900 1625 
Q 1206 1625 804 2044 
Q 403 2463 403 3188 
Q 403 3897 839 4323 
Q 1275 4750 2003 4750 
Q 2794 4750 3217 4161 
Q 3641 3572 3641 2478 
Q 3641 1253 3137 581 
Q 2634 -91 1722 -91 
Q 1475 -91 1203 -44 
Q 931 3 647 97 
L 647 872 
L 997 872 
Q 1038 556 1241 387 
Q 1444 219 1784 219 
Q 2391 219 2687 676 
Q 2984 1134 2994 2091 
z
M 1978 4441 
Q 1534 4441 1298 4117 
Q 1063 3794 1063 3188 
Q 1063 2581 1298 2256 
Q 1534 1931 1978 1931 
Q 2422 1931 2658 2245 
Q 2894 2559 2894 3150 
Q 2894 3772 2656 4106 
Q 2419 4441 1978 4441 
z
" id="DejaVuSerif-39" transform="scale(0.015625)"/>
       </defs>
       <use xlink:href="#DejaVuSerif-32"/>
       <use x="63.623047" xlink:href="#DejaVuSerif-30"/>
       <use x="127.246094" xlink:href="#DejaVuSerif-32"/>
       <use x="190.869141" xlink:href="#DejaVuSerif-30"/>
       <use x="254.492188" xlink:href="#DejaVuSerif-2d"/>
       <use x="288.28125" xlink:href="#DejaVuSerif-30"/>
       <use x="351.904297" xlink:href="#DejaVuSerif-39"/>
      </g>
     </g>
    </g>
    <g id="xtick_2">
     <g id="line2d_3">
      <path clip-path="url(#pf56a5cac48)" d="M 763.07131 947.401875 
L 763.07131 66.121875 
" style="fill:none;stroke:#000000;stroke-dasharray:12.8,3.2,2,3.2;stroke-dashoffset:0;stroke-width:2;"/>
     </g>
     <g id="line2d_4"/>
     <g id="text_2">
      <!-- 2020-11 -->
      <g transform="translate(651.989534 1032.975226)rotate(-30)scale(0.3 -0.3)">
       <defs>
        <path d="M 909 0 
L 909 331 
L 1722 331 
L 1722 4213 
L 781 3603 
L 781 4013 
L 1919 4750 
L 2350 4750 
L 2350 331 
L 3163 331 
L 3163 0 
L 909 0 
z
" id="DejaVuSerif-31" transform="scale(0.015625)"/>
       </defs>
       <use xlink:href="#DejaVuSerif-32"/>
       <use x="63.623047" xlink:href="#DejaVuSerif-30"/>
       <use x="127.246094" xlink:href="#DejaVuSerif-32"/>
       <use x="190.869141" xlink:href="#DejaVuSerif-30"/>
       <use x="254.492188" xlink:href="#DejaVuSerif-2d"/>
       <use x="288.28125" xlink:href="#DejaVuSerif-31"/>
       <use x="351.904297" xlink:href="#DejaVuSerif-31"/>
      </g>
     </g>
    </g>
    <g id="xtick_3">
     <g id="line2d_5">
      <path clip-path="url(#pf56a5cac48)" d="M 1134.58711 947.401875 
L 1134.58711 66.121875 
" style="fill:none;stroke:#000000;stroke-dasharray:12.8,3.2,2,3.2;stroke-dashoffset:0;stroke-width:2;"/>
     </g>
     <g id="line2d_6"/>
     <g id="text_3">
      <!-- 2021-01 -->
      <g transform="translate(1023.505333 1032.975226)rotate(-30)scale(0.3 -0.3)">
       <use xlink:href="#DejaVuSerif-32"/>
       <use x="63.623047" xlink:href="#DejaVuSerif-30"/>
       <use x="127.246094" xlink:href="#DejaVuSerif-32"/>
       <use x="190.869141" xlink:href="#DejaVuSerif-31"/>
       <use x="254.492188" xlink:href="#DejaVuSerif-2d"/>
       <use x="288.28125" xlink:href="#DejaVuSerif-30"/>
       <use x="351.904297" xlink:href="#DejaVuSerif-31"/>
      </g>
     </g>
    </g>
    <g id="xtick_4">
     <g id="line2d_7">
      <path clip-path="url(#pf56a5cac48)" d="M 1493.922063 947.401875 
L 1493.922063 66.121875 
" style="fill:none;stroke:#000000;stroke-dasharray:12.8,3.2,2,3.2;stroke-dashoffset:0;stroke-width:2;"/>
     </g>
     <g id="line2d_8"/>
     <g id="text_4">
      <!-- 2021-03 -->
      <g transform="translate(1382.840287 1032.975226)rotate(-30)scale(0.3 -0.3)">
       <defs>
        <path d="M 622 4469 
Q 988 4606 1323 4678 
Q 1659 4750 1953 4750 
Q 2638 4750 3022 4454 
Q 3406 4159 3406 3634 
Q 3406 3213 3140 2930 
Q 2875 2647 2388 2547 
Q 2963 2466 3280 2130 
Q 3597 1794 3597 1259 
Q 3597 606 3158 257 
Q 2719 -91 1894 -91 
Q 1528 -91 1179 -12 
Q 831 66 488 225 
L 488 1131 
L 838 1131 
Q 869 681 1141 450 
Q 1413 219 1906 219 
Q 2384 219 2661 495 
Q 2938 772 2938 1253 
Q 2938 1803 2653 2086 
Q 2369 2369 1819 2369 
L 1522 2369 
L 1522 2688 
L 1678 2688 
Q 2225 2688 2498 2914 
Q 2772 3141 2772 3597 
Q 2772 4006 2547 4223 
Q 2322 4441 1900 4441 
Q 1478 4441 1245 4241 
Q 1013 4041 972 3647 
L 622 3647 
L 622 4469 
z
" id="DejaVuSerif-33" transform="scale(0.015625)"/>
       </defs>
       <use xlink:href="#DejaVuSerif-32"/>
       <use x="63.623047" xlink:href="#DejaVuSerif-30"/>
       <use x="127.246094" xlink:href="#DejaVuSerif-32"/>
       <use x="190.869141" xlink:href="#DejaVuSerif-31"/>
       <use x="254.492188" xlink:href="#DejaVuSerif-2d"/>
       <use x="288.28125" xlink:href="#DejaVuSerif-30"/>
       <use x="351.904297" xlink:href="#DejaVuSerif-33"/>
      </g>
     </g>
    </g>
    <g id="xtick_5">
     <g id="line2d_9">
      <path clip-path="url(#pf56a5cac48)" d="M 1865.437863 947.401875 
L 1865.437863 66.121875 
" style="fill:none;stroke:#000000;stroke-dasharray:12.8,3.2,2,3.2;stroke-dashoffset:0;stroke-width:2;"/>
     </g>
     <g id="line2d_10"/>
     <g id="text_5">
      <!-- 2021-05 -->
      <g transform="translate(1754.356087 1032.975226)rotate(-30)scale(0.3 -0.3)">
       <defs>
        <path d="M 3219 4666 
L 3219 4153 
L 1081 4153 
L 1081 2816 
Q 1244 2928 1461 2984 
Q 1678 3041 1947 3041 
Q 2703 3041 3140 2622 
Q 3578 2203 3578 1478 
Q 3578 738 3136 323 
Q 2694 -91 1894 -91 
Q 1572 -91 1234 -12 
Q 897 66 544 225 
L 544 1131 
L 897 1131 
Q 925 688 1179 453 
Q 1434 219 1894 219 
Q 2388 219 2653 544 
Q 2919 869 2919 1478 
Q 2919 2084 2655 2407 
Q 2391 2731 1894 2731 
Q 1613 2731 1398 2631 
Q 1184 2531 1019 2322 
L 750 2322 
L 750 4666 
L 3219 4666 
z
" id="DejaVuSerif-35" transform="scale(0.015625)"/>
       </defs>
       <use xlink:href="#DejaVuSerif-32"/>
       <use x="63.623047" xlink:href="#DejaVuSerif-30"/>
       <use x="127.246094" xlink:href="#DejaVuSerif-32"/>
       <use x="190.869141" xlink:href="#DejaVuSerif-31"/>
       <use x="254.492188" xlink:href="#DejaVuSerif-2d"/>
       <use x="288.28125" xlink:href="#DejaVuSerif-30"/>
       <use x="351.904297" xlink:href="#DejaVuSerif-35"/>
      </g>
     </g>
    </g>
    <g id="xtick_6">
     <g id="line2d_11">
      <path clip-path="url(#pf56a5cac48)" d="M 2236.953663 947.401875 
L 2236.953663 66.121875 
" style="fill:none;stroke:#000000;stroke-dasharray:12.8,3.2,2,3.2;stroke-dashoffset:0;stroke-width:2;"/>
     </g>
     <g id="line2d_12"/>
     <g id="text_6">
      <!-- 2021-07 -->
      <g transform="translate(2125.871886 1032.975226)rotate(-30)scale(0.3 -0.3)">
       <defs>
        <path d="M 3609 4347 
L 1784 0 
L 1319 0 
L 3059 4153 
L 903 4153 
L 903 3578 
L 538 3578 
L 538 4666 
L 3609 4666 
L 3609 4347 
z
" id="DejaVuSerif-37" transform="scale(0.015625)"/>
       </defs>
       <use xlink:href="#DejaVuSerif-32"/>
       <use x="63.623047" xlink:href="#DejaVuSerif-30"/>
       <use x="127.246094" xlink:href="#DejaVuSerif-32"/>
       <use x="190.869141" xlink:href="#DejaVuSerif-31"/>
       <use x="254.492188" xlink:href="#DejaVuSerif-2d"/>
       <use x="288.28125" xlink:href="#DejaVuSerif-30"/>
       <use x="351.904297" xlink:href="#DejaVuSerif-37"/>
      </g>
     </g>
    </g>
    <g id="text_7">
     <!-- Date -->
     <g transform="translate(1291.118937 1055.143788)scale(0.168 -0.168)">
      <defs>
       <path d="M 1581 331 
L 2163 331 
Q 3072 331 3558 850 
Q 4044 1369 4044 2338 
Q 4044 3306 3559 3818 
Q 3075 4331 2163 4331 
L 1581 4331 
L 1581 331 
z
M 353 0 
L 353 331 
L 947 331 
L 947 4331 
L 353 4331 
L 353 4666 
L 2209 4666 
Q 3416 4666 4089 4050 
Q 4763 3434 4763 2338 
Q 4763 1238 4088 619 
Q 3413 0 2209 0 
L 353 0 
z
" id="DejaVuSerif-44" transform="scale(0.015625)"/>
       <path d="M 2547 1044 
L 2547 1747 
L 1806 1747 
Q 1378 1747 1168 1562 
Q 959 1378 959 997 
Q 959 650 1171 447 
Q 1384 244 1747 244 
Q 2106 244 2326 466 
Q 2547 688 2547 1044 
z
M 3122 2075 
L 3122 331 
L 3634 331 
L 3634 0 
L 2547 0 
L 2547 359 
Q 2356 128 2106 18 
Q 1856 -91 1522 -91 
Q 969 -91 644 203 
Q 319 497 319 997 
Q 319 1513 691 1797 
Q 1063 2081 1741 2081 
L 2547 2081 
L 2547 2309 
Q 2547 2688 2317 2895 
Q 2088 3103 1672 3103 
Q 1328 3103 1125 2947 
Q 922 2791 872 2484 
L 575 2484 
L 575 3156 
Q 875 3284 1158 3348 
Q 1441 3413 1709 3413 
Q 2400 3413 2761 3070 
Q 3122 2728 3122 2075 
z
" id="DejaVuSerif-61" transform="scale(0.015625)"/>
       <path d="M 691 2988 
L 184 2988 
L 184 3322 
L 691 3322 
L 691 4353 
L 1269 4353 
L 1269 3322 
L 2350 3322 
L 2350 2988 
L 1269 2988 
L 1269 878 
Q 1269 456 1350 337 
Q 1431 219 1650 219 
Q 1875 219 1978 351 
Q 2081 484 2088 781 
L 2522 781 
Q 2497 328 2275 118 
Q 2053 -91 1600 -91 
Q 1103 -91 897 129 
Q 691 350 691 878 
L 691 2988 
z
" id="DejaVuSerif-74" transform="scale(0.015625)"/>
       <path d="M 3469 1600 
L 991 1600 
L 991 1575 
Q 991 903 1244 561 
Q 1497 219 1991 219 
Q 2369 219 2611 417 
Q 2853 616 2950 1006 
L 3413 1006 
Q 3275 459 2904 184 
Q 2534 -91 1931 -91 
Q 1203 -91 761 389 
Q 319 869 319 1663 
Q 319 2450 753 2931 
Q 1188 3413 1894 3413 
Q 2647 3413 3050 2948 
Q 3453 2484 3469 1600 
z
M 2791 1931 
Q 2772 2513 2545 2808 
Q 2319 3103 1894 3103 
Q 1497 3103 1269 2806 
Q 1041 2509 991 1931 
L 2791 1931 
z
" id="DejaVuSerif-65" transform="scale(0.015625)"/>
      </defs>
      <use xlink:href="#DejaVuSerif-44"/>
      <use x="80.175781" xlink:href="#DejaVuSerif-61"/>
      <use x="139.794922" xlink:href="#DejaVuSerif-74"/>
      <use x="179.980469" xlink:href="#DejaVuSerif-65"/>
     </g>
    </g>
   </g>
   <g id="matplotlib.axis_2">
    <g id="ytick_1">
     <g id="line2d_13">
      <path clip-path="url(#pf56a5cac48)" d="M 58.409375 805.683299 
L 2564.009375 805.683299 
" style="fill:none;stroke:#000000;stroke-dasharray:12.8,3.2,2,3.2;stroke-dashoffset:0;stroke-width:2;"/>
     </g>
     <g id="line2d_14"/>
     <g id="text_8">
      <!-- 0.0 -->
      <g transform="translate(7.2 817.080956)scale(0.3 -0.3)">
       <defs>
        <path d="M 603 325 
Q 603 500 722 622 
Q 841 744 1019 744 
Q 1191 744 1312 622 
Q 1434 500 1434 325 
Q 1434 153 1312 31 
Q 1191 -91 1019 -91 
Q 841 -91 722 29 
Q 603 150 603 325 
z
" id="DejaVuSerif-2e" transform="scale(0.015625)"/>
       </defs>
       <use xlink:href="#DejaVuSerif-30"/>
       <use x="63.623047" xlink:href="#DejaVuSerif-2e"/>
       <use x="95.410156" xlink:href="#DejaVuSerif-30"/>
      </g>
     </g>
    </g>
    <g id="ytick_2">
     <g id="line2d_15">
      <path clip-path="url(#pf56a5cac48)" d="M 58.409375 653.888123 
L 2564.009375 653.888123 
" style="fill:none;stroke:#000000;stroke-dasharray:12.8,3.2,2,3.2;stroke-dashoffset:0;stroke-width:2;"/>
     </g>
     <g id="line2d_16"/>
     <g id="text_9">
      <!-- 0.1 -->
      <g transform="translate(7.2 665.285779)scale(0.3 -0.3)">
       <use xlink:href="#DejaVuSerif-30"/>
       <use x="63.623047" xlink:href="#DejaVuSerif-2e"/>
       <use x="95.410156" xlink:href="#DejaVuSerif-31"/>
      </g>
     </g>
    </g>
    <g id="ytick_3">
     <g id="line2d_17">
      <path clip-path="url(#pf56a5cac48)" d="M 58.409375 502.092946 
L 2564.009375 502.092946 
" style="fill:none;stroke:#000000;stroke-dasharray:12.8,3.2,2,3.2;stroke-dashoffset:0;stroke-width:2;"/>
     </g>
     <g id="line2d_18"/>
     <g id="text_10">
      <!-- 0.2 -->
      <g transform="translate(7.2 513.490603)scale(0.3 -0.3)">
       <use xlink:href="#DejaVuSerif-30"/>
       <use x="63.623047" xlink:href="#DejaVuSerif-2e"/>
       <use x="95.410156" xlink:href="#DejaVuSerif-32"/>
      </g>
     </g>
    </g>
    <g id="ytick_4">
     <g id="line2d_19">
      <path clip-path="url(#pf56a5cac48)" d="M 58.409375 350.29777 
L 2564.009375 350.29777 
" style="fill:none;stroke:#000000;stroke-dasharray:12.8,3.2,2,3.2;stroke-dashoffset:0;stroke-width:2;"/>
     </g>
     <g id="line2d_20"/>
     <g id="text_11">
      <!-- 0.3 -->
      <g transform="translate(7.2 361.695426)scale(0.3 -0.3)">
       <use xlink:href="#DejaVuSerif-30"/>
       <use x="63.623047" xlink:href="#DejaVuSerif-2e"/>
       <use x="95.410156" xlink:href="#DejaVuSerif-33"/>
      </g>
     </g>
    </g>
    <g id="ytick_5">
     <g id="line2d_21">
      <path clip-path="url(#pf56a5cac48)" d="M 58.409375 198.502593 
L 2564.009375 198.502593 
" style="fill:none;stroke:#000000;stroke-dasharray:12.8,3.2,2,3.2;stroke-dashoffset:0;stroke-width:2;"/>
     </g>
     <g id="line2d_22"/>
     <g id="text_12">
      <!-- 0.4 -->
      <g transform="translate(7.2 209.900249)scale(0.3 -0.3)">
       <defs>
        <path d="M 2234 1581 
L 2234 4063 
L 641 1581 
L 2234 1581 
z
M 3609 0 
L 1484 0 
L 1484 331 
L 2234 331 
L 2234 1247 
L 197 1247 
L 197 1588 
L 2241 4750 
L 2859 4750 
L 2859 1581 
L 3750 1581 
L 3750 1247 
L 2859 1247 
L 2859 331 
L 3609 331 
L 3609 0 
z
" id="DejaVuSerif-34" transform="scale(0.015625)"/>
       </defs>
       <use xlink:href="#DejaVuSerif-30"/>
       <use x="63.623047" xlink:href="#DejaVuSerif-2e"/>
       <use x="95.410156" xlink:href="#DejaVuSerif-34"/>
      </g>
     </g>
    </g>
   </g>
   <g id="line2d_23">
    <path clip-path="url(#pf56a5cac48)" d="M 172.300284 782.08 
L 178.390707 803.053003 
L 184.48113 781.729211 
L 190.571553 781.627295 
L 196.661976 764.762335 
L 214.933245 778.399181 
L 221.023668 736.890058 
L 227.114091 732.25852 
L 233.204514 695.289526 
L 239.294936 665.714104 
L 257.566205 633.811964 
L 263.656628 684.163137 
L 269.747051 682.708306 
L 275.837474 675.058958 
L 281.927897 692.629601 
L 306.289589 754.458147 
L 312.380012 730.338422 
L 318.470435 704.692292 
L 324.560858 743.734693 
L 342.832127 675.103279 
L 348.92255 700.396283 
L 355.012972 650.104528 
L 361.103395 714.995349 
L 367.193818 648.49464 
L 385.465087 641.105461 
L 391.55551 667.253041 
L 397.645933 698.645888 
L 403.736356 729.111876 
L 409.826779 739.288477 
L 428.098048 679.157543 
L 434.188471 669.615761 
L 440.278894 634.822868 
L 446.369317 602.575804 
L 452.45974 603.50927 
L 470.731008 563.929141 
L 476.821431 585.246912 
L 482.911854 534.024752 
L 489.002277 549.432659 
L 495.0927 539.130573 
L 513.363969 536.643172 
L 519.454392 543.624424 
L 525.544815 525.924758 
L 531.635238 554.182231 
L 537.725661 597.754461 
L 555.99693 587.320865 
L 562.087353 606.263221 
L 568.177776 607.784682 
L 580.358621 552.566098 
L 598.62989 468.704558 
L 604.720313 488.473936 
L 610.810736 489.042411 
L 616.901159 446.948067 
L 622.991582 364.246677 
L 647.353274 341.177094 
L 653.443697 265.695134 
L 659.53412 223.581086 
L 665.624543 192.274985 
L 683.895812 237.322629 
L 689.986235 165.218122 
L 696.076657 106.180057 
L 702.16708 113.948721 
L 708.257503 138.431025 
L 726.528772 327.054034 
L 732.619195 349.684262 
L 738.709618 469.18903 
L 744.800041 425.395811 
L 750.890464 542.700671 
L 769.161733 520.590452 
L 775.252156 494.691179 
L 781.342579 496.01325 
L 787.433002 474.352408 
L 793.523425 468.27308 
L 811.794693 476.786404 
L 817.885116 487.59769 
L 823.975539 474.221511 
L 830.065962 553.767877 
L 836.156385 548.987484 
L 854.427654 529.883865 
L 860.518077 480.498883 
L 866.6085 514.591915 
L 872.698923 520.298503 
L 878.789346 528.982789 
L 903.151038 543.418214 
L 909.241461 521.334774 
L 915.331884 528.807085 
L 921.422306 522.733082 
L 939.693575 551.746892 
L 945.783998 510.178067 
L 951.874421 505.915849 
L 957.964844 514.195378 
L 964.055267 552.359792 
L 994.507382 601.158685 
L 1000.597805 557.434512 
L 1006.688228 515.319982 
L 1024.959497 515.385216 
L 1031.049919 514.057786 
L 1037.140342 521.747292 
L 1043.230765 499.233399 
L 1049.321188 507.277237 
L 1067.592457 575.378812 
L 1073.68288 575.24182 
L 1079.773303 514.376972 
L 1110.225418 553.165496 
L 1116.315841 561.512184 
L 1122.406264 523.699422 
L 1152.858378 542.340432 
L 1158.948801 468.245227 
L 1165.039224 497.79017 
L 1171.129647 491.444903 
L 1177.22007 452.66382 
L 1195.491339 440.658708 
L 1201.581762 439.496056 
L 1207.672185 441.119222 
L 1213.762608 428.289699 
L 1219.853031 434.691649 
L 1238.1243 448.423904 
L 1244.214723 452.39001 
L 1250.305146 402.615782 
L 1256.395568 417.24426 
L 1262.485991 391.952624 
L 1280.75726 403.147138 
L 1286.847683 399.044831 
L 1292.938106 431.138987 
L 1299.028529 421.107161 
L 1305.118952 487.246565 
L 1323.390221 437.817384 
L 1329.480644 425.869614 
L 1335.571067 413.649416 
L 1341.66149 410.866776 
L 1347.751913 399.181119 
L 1366.023182 405.813199 
L 1372.113604 422.428269 
L 1378.204027 406.110153 
L 1384.29445 419.531753 
L 1390.384873 420.819781 
L 1420.836988 429.196688 
L 1426.927411 466.423439 
L 1433.017834 464.341044 
L 1451.289103 468.798192 
L 1457.379526 514.744192 
L 1463.469949 466.015628 
L 1469.560372 458.475366 
L 1475.650795 455.964681 
L 1493.922063 471.592813 
L 1500.012486 417.207186 
L 1506.102909 458.313849 
L 1512.193332 487.201793 
L 1518.283755 467.514296 
L 1536.555024 488.571007 
L 1542.645447 436.098047 
L 1548.73587 452.277533 
L 1554.826293 475.199817 
L 1560.916716 443.670212 
L 1579.187985 441.243509 
L 1585.278408 435.564165 
L 1591.368831 397.829361 
L 1597.459253 402.313277 
L 1603.549676 420.81421 
L 1621.820945 433.613467 
L 1627.911368 469.203439 
L 1640.092214 497.92512 
L 1646.182637 507.343368 
L 1664.453906 529.104876 
L 1670.544329 540.391344 
L 1676.634752 519.544726 
L 1707.086866 480.596327 
L 1713.177289 456.250591 
L 1719.267712 460.927837 
L 1725.358135 442.647132 
L 1731.448558 430.692935 
L 1749.719827 442.086745 
L 1755.81025 449.726844 
L 1761.900673 463.524661 
L 1767.991096 432.433872 
L 1774.081519 403.579033 
L 1792.352788 436.197674 
L 1798.443211 425.650402 
L 1804.533634 422.975375 
L 1810.624057 453.862265 
L 1816.71448 421.568243 
L 1834.985748 403.018119 
L 1841.076171 390.192715 
L 1847.166594 366.39967 
L 1853.257017 372.796492 
L 1859.34744 383.776018 
L 1877.618709 342.318624 
L 1883.709132 372.774185 
L 1889.799555 386.162879 
L 1895.889978 377.648156 
L 1901.980401 341.077232 
L 1920.25167 320.29837 
L 1926.342093 349.858248 
L 1932.432515 417.486532 
L 1938.522938 390.97946 
L 1944.613361 365.710004 
L 1962.88463 334.614453 
L 1968.975053 331.908526 
L 1975.065476 335.699422 
L 1981.155899 312.566506 
L 1987.246322 300.798406 
L 2017.698437 313.672454 
L 2023.78886 307.041895 
L 2029.879283 307.203739 
L 2048.150551 306.217896 
L 2054.240974 299.011176 
L 2060.331397 265.389271 
L 2066.42182 300.64487 
L 2072.512243 285.079976 
L 2090.783512 286.397078 
L 2096.873935 288.716215 
L 2102.964358 316.864899 
L 2109.054781 310.753251 
L 2115.145204 305.202881 
L 2133.416473 312.44892 
L 2139.506896 294.851403 
L 2145.597319 282.831161 
L 2151.687742 260.466666 
L 2157.778164 304.397142 
L 2182.139856 274.979373 
L 2188.230279 272.725039 
L 2194.320702 273.725966 
L 2200.411125 255.193537 
L 2218.682394 263.884948 
L 2224.772817 265.187883 
L 2230.86324 246.695089 
L 2236.953663 245.925624 
L 2243.044086 237.591269 
L 2261.315355 187.997923 
L 2267.405778 221.38716 
L 2273.4962 211.166739 
L 2279.586623 248.530615 
L 2303.948315 248.340098 
L 2310.038738 239.994559 
L 2316.129161 236.310963 
L 2322.219584 227.691877 
L 2328.310007 215.954792 
L 2346.581276 193.147773 
L 2352.671699 184.597092 
L 2358.762122 184.618113 
L 2364.852545 175.802342 
L 2370.942968 177.521702 
L 2389.214236 175.492252 
L 2395.304659 172.585988 
L 2401.395082 165.387297 
L 2407.485505 166.972836 
L 2413.575928 166.788968 
L 2431.847197 164.068005 
L 2437.93762 173.76603 
L 2444.028043 181.698224 
L 2450.118466 188.496024 
L 2450.118466 188.496024 
" style="fill:none;stroke:#008fd5;stroke-width:5;"/>
   </g>
   <g id="line2d_24">
    <path clip-path="url(#pf56a5cac48)" d="M 172.300284 799.999063 
L 178.390707 789.091396 
L 184.48113 802.527343 
L 190.571553 824.606385 
L 196.661976 849.127714 
L 214.933245 900.144748 
L 221.023668 891.273858 
L 227.114091 824.955473 
L 233.204514 855.521016 
L 239.294936 892.365812 
L 257.566205 907.343693 
L 263.656628 897.854919 
L 269.747051 864.711262 
L 275.837474 895.189068 
L 281.927897 863.012514 
L 306.289589 830.030721 
L 312.380012 838.933491 
L 318.470435 839.320757 
L 324.560858 842.169986 
L 342.832127 849.474975 
L 348.92255 866.409813 
L 355.012972 794.989141 
L 361.103395 728.387496 
L 367.193818 667.749649 
L 385.465087 610.166665 
L 391.55551 690.593616 
L 397.645933 659.466801 
L 403.736356 649.170013 
L 409.826779 642.228854 
L 428.098048 668.684197 
L 434.188471 639.570925 
L 440.278894 602.162699 
L 446.369317 600.315277 
L 452.45974 580.792504 
L 470.731008 583.116522 
L 476.821431 591.861765 
L 482.911854 564.737967 
L 489.002277 565.229989 
L 495.0927 530.366281 
L 513.363969 486.759535 
L 519.454392 455.306775 
L 525.544815 448.231087 
L 531.635238 459.745626 
L 537.725661 424.342776 
L 555.99693 351.185094 
L 562.087353 315.956312 
L 568.177776 342.241669 
L 574.268199 435.109325 
L 580.358621 454.496112 
L 598.62989 521.63285 
L 604.720313 495.604579 
L 610.810736 534.834857 
L 616.901159 534.060404 
L 622.991582 533.667305 
L 647.353274 537.499647 
L 653.443697 565.807217 
L 659.53412 566.610706 
L 665.624543 587.849773 
L 683.895812 594.667024 
L 689.986235 587.51599 
L 696.076657 588.416235 
L 702.16708 618.013273 
L 708.257503 613.104036 
L 726.528772 619.362563 
L 732.619195 583.677889 
L 738.709618 592.21485 
L 744.800041 562.684273 
L 750.890464 587.570241 
L 769.161733 587.262307 
L 775.252156 590.879485 
L 781.342579 594.110752 
L 787.433002 590.524035 
L 793.523425 581.529532 
L 811.794693 603.229958 
L 817.885116 628.52577 
L 823.975539 639.522945 
L 830.065962 653.005136 
L 836.156385 648.795991 
L 854.427654 601.369801 
L 860.518077 668.535838 
L 866.6085 693.81777 
L 872.698923 671.12162 
L 878.789346 651.142654 
L 903.151038 685.134609 
L 909.241461 676.830309 
L 915.331884 671.475711 
L 921.422306 676.591514 
L 939.693575 689.904018 
L 945.783998 678.2833 
L 951.874421 662.300506 
L 957.964844 641.807979 
L 964.055267 641.807979 
L 994.507382 666.857057 
L 1000.597805 687.439892 
L 1006.688228 672.413739 
L 1024.959497 636.568002 
L 1031.049919 636.568002 
L 1037.140342 605.378756 
L 1043.230765 587.097046 
L 1049.321188 608.239346 
L 1067.592457 591.499889 
L 1073.68288 611.921602 
L 1079.773303 579.981644 
L 1110.225418 584.311781 
L 1116.315841 581.147064 
L 1122.406264 590.052932 
L 1152.858378 584.480201 
L 1158.948801 599.236984 
L 1165.039224 583.597497 
L 1171.129647 590.195058 
L 1177.22007 589.091094 
L 1195.491339 574.928983 
L 1201.581762 600.047394 
L 1207.672185 562.261978 
L 1213.762608 542.768316 
L 1219.853031 546.025653 
L 1238.1243 545.751403 
L 1244.214723 562.299802 
L 1250.305146 554.973031 
L 1256.395568 555.134 
L 1262.485991 540.725837 
L 1280.75726 533.406878 
L 1286.847683 541.012071 
L 1292.938106 552.157621 
L 1299.028529 557.566717 
L 1305.118952 575.002033 
L 1323.390221 594.558213 
L 1329.480644 594.558213 
L 1335.571067 641.102654 
L 1341.66149 617.788831 
L 1347.751913 622.911381 
L 1366.023182 631.688505 
L 1372.113604 640.87993 
L 1378.204027 661.556022 
L 1384.29445 638.345639 
L 1390.384873 596.565419 
L 1420.836988 604.997009 
L 1426.927411 583.116628 
L 1433.017834 581.414388 
L 1451.289103 564.931696 
L 1457.379526 563.732236 
L 1463.469949 558.926073 
L 1469.560372 553.316242 
L 1475.650795 539.445117 
L 1493.922063 596.750997 
L 1500.012486 597.753328 
L 1506.102909 585.543059 
L 1512.193332 587.378277 
L 1518.283755 580.006723 
L 1536.555024 586.194779 
L 1542.645447 580.407116 
L 1548.73587 580.346273 
L 1554.826293 594.19448 
L 1560.916716 591.541312 
L 1579.187985 547.106466 
L 1585.278408 612.262561 
L 1591.368831 644.509321 
L 1597.459253 646.242501 
L 1603.549676 627.754191 
L 1621.820945 626.250205 
L 1627.911368 643.046172 
L 1640.092214 643.046172 
L 1646.182637 615.796195 
L 1664.453906 585.541923 
L 1670.544329 570.906831 
L 1676.634752 581.084357 
L 1707.086866 570.269645 
L 1713.177289 572.638793 
L 1719.267712 571.51359 
L 1725.358135 577.085884 
L 1731.448558 576.283738 
L 1749.719827 573.660434 
L 1755.81025 569.825499 
L 1761.900673 560.523689 
L 1767.991096 552.102473 
L 1774.081519 553.370966 
L 1792.352788 555.257792 
L 1798.443211 542.29265 
L 1804.533634 532.092939 
L 1810.624057 516.929655 
L 1816.71448 520.261025 
L 1834.985748 516.971167 
L 1841.076171 500.94167 
L 1847.166594 497.682232 
L 1853.257017 490.600173 
L 1859.34744 498.638682 
L 1877.618709 511.581364 
L 1883.709132 510.686294 
L 1889.799555 506.041261 
L 1895.889978 500.411393 
L 1901.980401 485.507309 
L 1920.25167 500.853163 
L 1926.342093 485.557154 
L 1932.432515 475.319553 
L 1938.522938 465.454772 
L 1944.613361 449.931818 
L 1962.88463 443.473125 
L 1968.975053 429.706746 
L 1975.065476 407.449586 
L 1981.155899 426.397605 
L 1987.246322 432.138975 
L 2017.698437 440.3106 
L 2023.78886 445.35349 
L 2029.879283 421.12829 
L 2048.150551 414.740935 
L 2054.240974 414.678463 
L 2060.331397 418.305346 
L 2066.42182 407.156928 
L 2072.512243 424.13298 
L 2090.783512 423.949345 
L 2096.873935 435.375292 
L 2102.964358 434.415134 
L 2109.054781 434.202969 
L 2115.145204 427.24804 
L 2133.416473 414.511401 
L 2139.506896 403.008476 
L 2145.597319 406.520914 
L 2151.687742 380.205601 
L 2157.778164 388.342406 
L 2182.139856 387.565572 
L 2188.230279 409.60048 
L 2194.320702 383.133463 
L 2200.411125 395.806397 
L 2218.682394 392.780869 
L 2224.772817 388.620441 
L 2230.86324 379.617913 
L 2236.953663 360.565479 
L 2243.044086 324.936167 
L 2261.315355 350.198459 
L 2267.405778 337.079737 
L 2273.4962 343.208789 
L 2279.586623 371.329652 
L 2303.948315 359.722748 
L 2310.038738 351.514692 
L 2316.129161 355.291118 
L 2322.219584 351.641562 
L 2328.310007 342.214272 
L 2346.581276 324.366374 
L 2352.671699 306.665549 
L 2358.762122 310.661237 
L 2364.852545 295.298772 
L 2370.942968 294.427874 
L 2389.214236 297.672154 
L 2395.304659 290.414247 
L 2401.395082 298.744352 
L 2407.485505 292.242279 
L 2413.575928 287.675449 
L 2431.847197 285.642465 
L 2437.93762 293.885868 
L 2444.028043 301.870988 
L 2450.118466 308.880698 
L 2450.118466 308.880698 
" style="fill:none;stroke:#fc4f30;stroke-width:5;"/>
   </g>
   <g id="line2d_25">
    <path clip-path="url(#pf56a5cac48)" d="M 172.300284 805.357728 
L 178.390707 804.06219 
L 190.571553 799.907429 
L 196.661976 798.098191 
L 214.933245 797.349008 
L 221.023668 795.604498 
L 227.114091 796.473636 
L 233.204514 790.648772 
L 239.294936 787.969365 
L 257.566205 786.497952 
L 263.656628 786.263109 
L 269.747051 783.559173 
L 275.837474 779.696033 
L 281.927897 779.90547 
L 306.289589 778.68917 
L 312.380012 777.077728 
L 318.470435 775.066103 
L 324.560858 771.609617 
L 342.832127 769.979433 
L 348.92255 768.979311 
L 355.012972 766.297951 
L 361.103395 767.497099 
L 367.193818 762.311046 
L 385.465087 760.789269 
L 391.55551 759.538838 
L 397.645933 757.471147 
L 403.736356 757.216745 
L 409.826779 751.464456 
L 428.098048 750.382636 
L 434.188471 749.044258 
L 440.278894 748.819086 
L 446.369317 735.68623 
L 452.45974 733.732521 
L 470.731008 731.142213 
L 476.821431 730.505994 
L 482.911854 730.429241 
L 489.002277 728.415896 
L 495.0927 729.846545 
L 513.363969 725.613756 
L 519.454392 724.569768 
L 525.544815 723.261677 
L 531.635238 723.230285 
L 537.725661 721.069197 
L 555.99693 720.235666 
L 562.087353 719.559092 
L 568.177776 712.976059 
L 574.268199 708.75287 
L 580.358621 709.424502 
L 598.62989 707.131409 
L 604.720313 707.036452 
L 610.810736 707.418329 
L 616.901159 705.608762 
L 622.991582 699.764075 
L 647.353274 695.062397 
L 653.443697 694.443155 
L 659.53412 692.076475 
L 665.624543 695.239243 
L 683.895812 688.472702 
L 689.986235 686.747335 
L 696.076657 685.448468 
L 702.16708 683.95386 
L 708.257503 680.902469 
L 726.528772 675.357686 
L 732.619195 673.914684 
L 738.709618 672.664798 
L 744.800041 668.989941 
L 750.890464 669.1163 
L 769.161733 668.760563 
L 775.252156 661.5797 
L 781.342579 659.626641 
L 787.433002 657.929981 
L 793.523425 656.661521 
L 811.794693 649.942776 
L 817.885116 647.409884 
L 823.975539 646.479675 
L 830.065962 646.187182 
L 836.156385 643.127395 
L 854.427654 646.385519 
L 860.518077 644.748192 
L 866.6085 637.441039 
L 872.698923 635.799184 
L 878.789346 636.787805 
L 903.151038 630.041025 
L 909.241461 628.211143 
L 915.331884 626.769923 
L 921.422306 623.598965 
L 939.693575 617.7187 
L 945.783998 617.089583 
L 951.874421 614.149254 
L 957.964844 612.056239 
L 964.055267 613.783867 
L 994.507382 614.31482 
L 1000.597805 603.280436 
L 1006.688228 599.840032 
L 1024.959497 597.702085 
L 1031.049919 598.946216 
L 1037.140342 595.613276 
L 1043.230765 588.973819 
L 1049.321188 586.041062 
L 1073.68288 583.399338 
L 1079.773303 576.275374 
L 1110.225418 576.843069 
L 1116.315841 574.079563 
L 1122.406264 572.301557 
L 1152.858378 570.795268 
L 1158.948801 564.913748 
L 1165.039224 563.251096 
L 1171.129647 560.89124 
L 1177.22007 558.197029 
L 1195.491339 556.790887 
L 1201.581762 555.918507 
L 1207.672185 549.681975 
L 1213.762608 548.140191 
L 1219.853031 544.970756 
L 1238.1243 544.546519 
L 1244.214723 545.004397 
L 1250.305146 536.38825 
L 1256.395568 534.733497 
L 1262.485991 532.928944 
L 1280.75726 531.123237 
L 1286.847683 531.472751 
L 1292.938106 526.806921 
L 1299.028529 524.935299 
L 1305.118952 523.377207 
L 1323.390221 522.107632 
L 1329.480644 522.046079 
L 1335.571067 521.870726 
L 1341.66149 521.553188 
L 1347.751913 513.562084 
L 1366.023182 511.445451 
L 1372.113604 511.014209 
L 1378.204027 505.182781 
L 1384.29445 504.644648 
L 1390.384873 501.029239 
L 1420.836988 500.671334 
L 1426.927411 499.959696 
L 1433.017834 493.965428 
L 1451.289103 492.723131 
L 1457.379526 491.607609 
L 1463.469949 490.670817 
L 1469.560372 491.558925 
L 1475.650795 486.866642 
L 1493.922063 485.92061 
L 1500.012486 483.173417 
L 1506.102909 482.128454 
L 1512.193332 487.331306 
L 1518.283755 477.507685 
L 1536.555024 476.405795 
L 1542.645447 475.346389 
L 1548.73587 474.03131 
L 1554.826293 473.868003 
L 1560.916716 469.307958 
L 1579.187985 469.466457 
L 1585.278408 470.953192 
L 1597.459253 463.029713 
L 1603.549676 463.579593 
L 1621.820945 462.833048 
L 1627.911368 462.184111 
L 1640.092214 467.620039 
L 1646.182637 467.253983 
L 1664.453906 473.567659 
L 1670.544329 457.143718 
L 1676.634752 457.727402 
L 1707.086866 456.840429 
L 1713.177289 459.007946 
L 1719.267712 452.268794 
L 1725.358135 451.668587 
L 1731.448558 450.818775 
L 1749.719827 449.938319 
L 1755.81025 447.489211 
L 1761.900673 446.443084 
L 1767.991096 445.734265 
L 1774.081519 446.232125 
L 1792.352788 444.130885 
L 1798.443211 442.201024 
L 1804.533634 440.721976 
L 1810.624057 439.853064 
L 1816.71448 438.413772 
L 1834.985748 437.546181 
L 1841.076171 430.628615 
L 1847.166594 434.500082 
L 1853.257017 434.104675 
L 1859.34744 434.453007 
L 1877.618709 432.586073 
L 1883.709132 445.879483 
L 1889.799555 431.491195 
L 1895.889978 430.587112 
L 1901.980401 429.230069 
L 1920.25167 428.908701 
L 1926.342093 430.653427 
L 1932.432515 428.203412 
L 1938.522938 427.835221 
L 1944.613361 425.61504 
L 1962.88463 425.020545 
L 1968.975053 425.719135 
L 1975.065476 425.844287 
L 1981.155899 425.671174 
L 1987.246322 421.289994 
L 2017.698437 421.871522 
L 2023.78886 419.753109 
L 2029.879283 419.245889 
L 2048.150551 418.706764 
L 2054.240974 416.360129 
L 2060.331397 417.451116 
L 2066.42182 416.453983 
L 2072.512243 414.288614 
L 2090.783512 414.077523 
L 2096.873935 412.102567 
L 2109.054781 411.045521 
L 2115.145204 408.646891 
L 2133.416473 409.787786 
L 2139.506896 407.93969 
L 2145.597319 407.070048 
L 2151.687742 407.905432 
L 2157.778164 408.126453 
L 2194.320702 405.157573 
L 2200.411125 404.822457 
L 2218.682394 404.5649 
L 2224.772817 403.222171 
L 2230.86324 401.702927 
L 2236.953663 400.805628 
L 2243.044086 405.438109 
L 2261.315355 398.881177 
L 2267.405778 398.298494 
L 2273.4962 398.021633 
L 2279.586623 397.121424 
L 2303.948315 399.396853 
L 2310.038738 395.470739 
L 2316.129161 395.124853 
L 2328.310007 393.96704 
L 2346.581276 395.553411 
L 2352.671699 392.146304 
L 2358.762122 391.800693 
L 2364.852545 391.309084 
L 2370.942968 390.622328 
L 2389.214236 393.03726 
L 2395.304659 388.933925 
L 2401.395082 387.958797 
L 2407.485505 387.392876 
L 2413.575928 388.140803 
L 2437.93762 384.611326 
L 2444.028043 384.453853 
L 2450.118466 383.09047 
L 2450.118466 383.09047 
" style="fill:none;stroke:#e5ae38;stroke-width:5;"/>
   </g>
   <g id="patch_3">
    <path d="M 58.409375 947.401875 
L 58.409375 66.121875 
" style="fill:none;stroke:#f0f0f0;stroke-linecap:square;stroke-linejoin:miter;stroke-width:3;"/>
   </g>
   <g id="patch_4">
    <path d="M 2564.009375 947.401875 
L 2564.009375 66.121875 
" style="fill:none;stroke:#f0f0f0;stroke-linecap:square;stroke-linejoin:miter;stroke-width:3;"/>
   </g>
   <g id="patch_5">
    <path d="M 58.409375 947.401875 
L 2564.009375 947.401875 
" style="fill:none;stroke:#f0f0f0;stroke-linecap:square;stroke-linejoin:miter;stroke-width:3;"/>
   </g>
   <g id="patch_6">
    <path d="M 58.409375 66.121875 
L 2564.009375 66.121875 
" style="fill:none;stroke:#f0f0f0;stroke-linecap:square;stroke-linejoin:miter;stroke-width:3;"/>
   </g>
   <g id="text_13">
    <!-- Exchange Rates Return Argentina -->
    <g transform="translate(738.0875 52.790625)scale(0.6 -0.6)">
     <defs>
      <path d="M 300 0 
L 300 378 
L 897 378 
L 897 4288 
L 300 4288 
L 300 4666 
L 4494 4666 
L 4494 3566 
L 4063 3566 
L 4063 4238 
L 2100 4238 
L 2100 2741 
L 3322 2741 
L 3322 3334 
L 3750 3334 
L 3750 1722 
L 3322 1722 
L 3322 2316 
L 2100 2316 
L 2100 428 
L 4122 428 
L 4122 1100 
L 4550 1100 
L 4550 0 
L 300 0 
z
" id="DejaVuSerif-Bold-45" transform="scale(0.015625)"/>
      <path d="M 2247 2119 
L 2834 2944 
L 2425 2944 
L 2425 3322 
L 3719 3322 
L 3719 2944 
L 3278 2944 
L 2431 1759 
L 3419 378 
L 3859 378 
L 3859 0 
L 1747 0 
L 1747 378 
L 2175 378 
L 1550 1253 
L 922 378 
L 1369 378 
L 1369 0 
L 0 0 
L 0 378 
L 475 378 
L 1356 1619 
L 403 2944 
L 31 2944 
L 31 3322 
L 2059 3322 
L 2059 2944 
L 1656 2944 
L 2247 2119 
z
" id="DejaVuSerif-Bold-78" transform="scale(0.015625)"/>
      <path d="M 3609 1038 
Q 3491 469 3123 189 
Q 2756 -91 2125 -91 
Q 1238 -91 750 368 
Q 263 828 263 1663 
Q 263 2488 744 2950 
Q 1225 3413 2081 3413 
Q 2428 3413 2781 3347 
Q 3134 3281 3500 3150 
L 3500 2228 
L 3150 2228 
Q 3100 2650 2903 2854 
Q 2706 3059 2350 3059 
Q 1888 3059 1692 2746 
Q 1497 2434 1497 1663 
Q 1497 909 1687 586 
Q 1878 263 2309 263 
Q 2644 263 2845 463 
Q 3047 663 3091 1038 
L 3609 1038 
z
" id="DejaVuSerif-Bold-63" transform="scale(0.015625)"/>
      <path d="M 219 0 
L 219 378 
L 691 378 
L 691 4488 
L 197 4488 
L 197 4863 
L 1797 4863 
L 1797 2853 
Q 1997 3150 2253 3281 
Q 2509 3413 2900 3413 
Q 3459 3413 3745 3083 
Q 4031 2753 4031 2113 
L 4031 378 
L 4506 378 
L 4506 0 
L 2522 0 
L 2522 378 
L 2925 378 
L 2925 2144 
Q 2925 2566 2817 2730 
Q 2709 2894 2444 2894 
Q 2109 2894 1953 2648 
Q 1797 2403 1797 1869 
L 1797 378 
L 2203 378 
L 2203 0 
L 219 0 
z
" id="DejaVuSerif-Bold-68" transform="scale(0.015625)"/>
      <path d="M 3525 2041 
L 3525 378 
L 4000 378 
L 4000 0 
L 2419 0 
L 2419 422 
Q 2200 159 1931 34 
Q 1663 -91 1319 -91 
Q 809 -91 536 182 
Q 263 456 263 966 
Q 263 1525 655 1803 
Q 1047 2081 1838 2081 
L 2419 2081 
L 2419 2278 
Q 2419 2681 2228 2873 
Q 2038 3066 1638 3066 
Q 1306 3066 1126 2930 
Q 947 2794 872 2484 
L 519 2484 
L 519 3200 
Q 816 3306 1134 3359 
Q 1453 3413 1806 3413 
Q 2697 3413 3111 3081 
Q 3525 2750 3525 2041 
z
M 2419 1044 
L 2419 1709 
L 2003 1709 
Q 1694 1709 1528 1540 
Q 1363 1372 1363 1056 
Q 1363 741 1483 584 
Q 1603 428 1850 428 
Q 2106 428 2262 597 
Q 2419 766 2419 1044 
z
" id="DejaVuSerif-Bold-61" transform="scale(0.015625)"/>
      <path d="M 219 0 
L 219 378 
L 691 378 
L 691 2944 
L 219 2944 
L 219 3322 
L 1797 3322 
L 1797 2853 
Q 1997 3150 2253 3281 
Q 2509 3413 2900 3413 
Q 3459 3413 3745 3083 
Q 4031 2753 4031 2113 
L 4031 378 
L 4506 378 
L 4506 0 
L 2522 0 
L 2522 378 
L 2925 378 
L 2925 2144 
Q 2925 2566 2817 2730 
Q 2709 2894 2444 2894 
Q 2109 2894 1953 2648 
Q 1797 2403 1797 1869 
L 1797 378 
L 2203 378 
L 2203 0 
L 219 0 
z
" id="DejaVuSerif-Bold-6e" transform="scale(0.015625)"/>
      <path d="M 3853 2944 
L 3853 44 
Q 3853 -656 3354 -1039 
Q 2856 -1422 1947 -1422 
Q 1616 -1422 1275 -1370 
Q 934 -1319 575 -1216 
L 575 -422 
L 928 -422 
Q 975 -750 1192 -909 
Q 1409 -1069 1813 -1069 
Q 2325 -1069 2536 -823 
Q 2747 -578 2747 44 
L 2747 422 
Q 2606 163 2367 36 
Q 2128 -91 1778 -91 
Q 1072 -91 667 378 
Q 263 847 263 1663 
Q 263 2481 667 2947 
Q 1072 3413 1778 3413 
Q 2128 3413 2367 3286 
Q 2606 3159 2747 2900 
L 2747 3322 
L 4325 3322 
L 4325 2944 
L 3853 2944 
z
M 2747 1825 
Q 2747 2406 2597 2665 
Q 2447 2925 2119 2925 
Q 1775 2925 1636 2651 
Q 1497 2378 1497 1663 
Q 1497 947 1637 672 
Q 1778 397 2119 397 
Q 2447 397 2597 656 
Q 2747 916 2747 1497 
L 2747 1825 
z
" id="DejaVuSerif-Bold-67" transform="scale(0.015625)"/>
      <path d="M 2566 1875 
Q 2566 2531 2444 2795 
Q 2322 3059 2028 3059 
Q 1744 3059 1620 2800 
Q 1497 2541 1497 1931 
L 1497 1875 
L 2566 1875 
z
M 3781 1503 
L 1497 1503 
L 1497 1478 
Q 1497 834 1690 548 
Q 1884 263 2316 263 
Q 2675 263 2897 453 
Q 3119 644 3181 1006 
L 3700 1006 
Q 3566 441 3166 175 
Q 2766 -91 2047 -91 
Q 1184 -91 723 364 
Q 263 819 263 1663 
Q 263 2488 734 2950 
Q 1206 3413 2047 3413 
Q 2872 3413 3312 2927 
Q 3753 2441 3781 1503 
z
" id="DejaVuSerif-Bold-65" transform="scale(0.015625)"/>
      <path id="DejaVuSerif-Bold-20" transform="scale(0.015625)"/>
      <path d="M 3397 2278 
Q 3675 2238 3865 2094 
Q 4056 1950 4197 1678 
L 4878 378 
L 5356 378 
L 5356 0 
L 3822 0 
L 3078 1409 
Q 2863 1847 2711 1967 
Q 2559 2088 2291 2088 
L 2100 2088 
L 2100 378 
L 2700 378 
L 2700 0 
L 300 0 
L 300 378 
L 897 378 
L 897 4288 
L 300 4288 
L 300 4666 
L 2963 4666 
Q 3775 4666 4217 4339 
Q 4659 4013 4659 3413 
Q 4659 2925 4345 2642 
Q 4031 2359 3397 2278 
z
M 2100 2463 
L 2509 2463 
Q 2947 2463 3183 2700 
Q 3419 2938 3419 3378 
Q 3419 3819 3183 4053 
Q 2947 4288 2509 4288 
L 2100 4288 
L 2100 2463 
z
" id="DejaVuSerif-Bold-52" transform="scale(0.015625)"/>
      <path d="M 634 2944 
L 153 2944 
L 153 3322 
L 634 3322 
L 634 4353 
L 1741 4353 
L 1741 3322 
L 2663 3322 
L 2663 2944 
L 1741 2944 
L 1741 909 
Q 1741 475 1809 369 
Q 1878 263 2059 263 
Q 2259 263 2356 397 
Q 2453 531 2459 813 
L 2925 813 
Q 2897 313 2651 111 
Q 2406 -91 1806 -91 
Q 1122 -91 878 123 
Q 634 338 634 909 
L 634 2944 
z
" id="DejaVuSerif-Bold-74" transform="scale(0.015625)"/>
      <path d="M 300 97 
L 300 1025 
L 653 1025 
Q 697 653 931 458 
Q 1166 263 1569 263 
Q 1906 263 2086 380 
Q 2266 497 2266 716 
Q 2266 916 2152 1025 
Q 2038 1134 1709 1216 
L 1253 1331 
Q 738 1459 506 1698 
Q 275 1938 275 2344 
Q 275 2884 650 3148 
Q 1025 3413 1806 3413 
Q 2100 3413 2433 3364 
Q 2766 3316 3169 3213 
L 3169 2375 
L 2816 2375 
Q 2788 2716 2573 2887 
Q 2359 3059 1959 3059 
Q 1622 3059 1448 2951 
Q 1275 2844 1275 2638 
Q 1275 2469 1375 2372 
Q 1475 2275 1734 2209 
L 2188 2094 
Q 2841 1928 3091 1684 
Q 3341 1441 3341 1006 
Q 3341 444 2939 176 
Q 2538 -91 1691 -91 
Q 1381 -91 1034 -44 
Q 688 3 300 97 
z
" id="DejaVuSerif-Bold-73" transform="scale(0.015625)"/>
      <path d="M 3963 3322 
L 3963 378 
L 4434 378 
L 4434 0 
L 2853 0 
L 2853 469 
Q 2656 172 2400 40 
Q 2144 -91 1753 -91 
Q 1194 -91 908 239 
Q 622 569 622 1209 
L 622 2944 
L 147 2944 
L 147 3322 
L 1728 3322 
L 1728 1381 
Q 1728 763 1831 595 
Q 1934 428 2209 428 
Q 2544 428 2698 675 
Q 2853 922 2853 1459 
L 2853 2944 
L 2450 2944 
L 2450 3322 
L 3963 3322 
z
" id="DejaVuSerif-Bold-75" transform="scale(0.015625)"/>
      <path d="M 3438 3359 
L 3438 2369 
L 3084 2369 
Q 3066 2634 2941 2764 
Q 2816 2894 2578 2894 
Q 2216 2894 2006 2575 
Q 1797 2256 1797 1691 
L 1797 378 
L 2400 378 
L 2400 0 
L 219 0 
L 219 378 
L 691 378 
L 691 2944 
L 184 2944 
L 184 3322 
L 1797 3322 
L 1797 2731 
Q 1959 3078 2226 3245 
Q 2494 3413 2881 3413 
Q 2978 3413 3117 3398 
Q 3256 3384 3438 3359 
z
" id="DejaVuSerif-Bold-72" transform="scale(0.015625)"/>
      <path d="M -50 0 
L -50 378 
L 331 378 
L 2088 4666 
L 2834 4666 
L 4594 378 
L 5038 378 
L 5038 0 
L 2853 0 
L 2853 378 
L 3309 378 
L 2925 1331 
L 1172 1331 
L 781 378 
L 1338 378 
L 1338 0 
L -50 0 
z
M 1325 1709 
L 2772 1709 
L 2053 3494 
L 1325 1709 
z
" id="DejaVuSerif-Bold-41" transform="scale(0.015625)"/>
      <path d="M 588 4263 
Q 588 4516 763 4689 
Q 938 4863 1191 4863 
Q 1438 4863 1611 4689 
Q 1784 4516 1784 4263 
Q 1784 4016 1611 3842 
Q 1438 3669 1191 3669 
Q 938 3669 763 3841 
Q 588 4013 588 4263 
z
M 1797 378 
L 2272 378 
L 2272 0 
L 219 0 
L 219 378 
L 691 378 
L 691 2944 
L 219 2944 
L 219 3322 
L 1797 3322 
L 1797 378 
z
" id="DejaVuSerif-Bold-69" transform="scale(0.015625)"/>
     </defs>
     <use xlink:href="#DejaVuSerif-Bold-45"/>
     <use x="76.220703" xlink:href="#DejaVuSerif-Bold-78"/>
     <use x="135.839844" xlink:href="#DejaVuSerif-Bold-63"/>
     <use x="196.728516" xlink:href="#DejaVuSerif-Bold-68"/>
     <use x="269.433594" xlink:href="#DejaVuSerif-Bold-61"/>
     <use x="334.228516" xlink:href="#DejaVuSerif-Bold-6e"/>
     <use x="406.933594" xlink:href="#DejaVuSerif-Bold-67"/>
     <use x="476.855469" xlink:href="#DejaVuSerif-Bold-65"/>
     <use x="540.478516" xlink:href="#DejaVuSerif-Bold-20"/>
     <use x="575.292969" xlink:href="#DejaVuSerif-Bold-52"/>
     <use x="660.648438" xlink:href="#DejaVuSerif-Bold-61"/>
     <use x="725.443359" xlink:href="#DejaVuSerif-Bold-74"/>
     <use x="771.634766" xlink:href="#DejaVuSerif-Bold-65"/>
     <use x="835.257812" xlink:href="#DejaVuSerif-Bold-73"/>
     <use x="891.556641" xlink:href="#DejaVuSerif-Bold-20"/>
     <use x="926.371094" xlink:href="#DejaVuSerif-Bold-52"/>
     <use x="1009.476562" xlink:href="#DejaVuSerif-Bold-65"/>
     <use x="1073.099609" xlink:href="#DejaVuSerif-Bold-74"/>
     <use x="1119.291016" xlink:href="#DejaVuSerif-Bold-75"/>
     <use x="1191.996094" xlink:href="#DejaVuSerif-Bold-72"/>
     <use x="1244.681641" xlink:href="#DejaVuSerif-Bold-6e"/>
     <use x="1317.386719" xlink:href="#DejaVuSerif-Bold-20"/>
     <use x="1352.201172" xlink:href="#DejaVuSerif-Bold-41"/>
     <use x="1429.789062" xlink:href="#DejaVuSerif-Bold-72"/>
     <use x="1482.474609" xlink:href="#DejaVuSerif-Bold-67"/>
     <use x="1552.396484" xlink:href="#DejaVuSerif-Bold-65"/>
     <use x="1616.019531" xlink:href="#DejaVuSerif-Bold-6e"/>
     <use x="1688.724609" xlink:href="#DejaVuSerif-Bold-74"/>
     <use x="1734.916016" xlink:href="#DejaVuSerif-Bold-69"/>
     <use x="1772.904297" xlink:href="#DejaVuSerif-Bold-6e"/>
     <use x="1845.609375" xlink:href="#DejaVuSerif-Bold-61"/>
    </g>
   </g>
   <g id="legend_1">
    <g id="patch_7">
     <path d="M 2592.009375 600.830625 
L 3195.790625 600.830625 
Q 3203.790625 600.830625 3203.790625 592.830625 
L 3203.790625 420.693125 
Q 3203.790625 412.693125 3195.790625 412.693125 
L 2592.009375 412.693125 
Q 2584.009375 412.693125 2584.009375 420.693125 
L 2584.009375 592.830625 
Q 2584.009375 600.830625 2592.009375 600.830625 
z
" style="fill:#f0f0f0;opacity:0.8;stroke:#cccccc;stroke-linejoin:miter;stroke-width:0.5;"/>
    </g>
    <g id="line2d_26">
     <path d="M 2600.009375 445.086875 
L 2680.009375 445.086875 
" style="fill:none;stroke:#008fd5;stroke-width:5;"/>
    </g>
    <g id="line2d_27"/>
    <g id="text_14">
     <!-- Cedears Rate % 40.66 -->
     <g transform="translate(2712.009375 459.086875)scale(0.4 -0.4)">
      <defs>
       <path d="M 4513 1234 
Q 4306 581 3820 245 
Q 3334 -91 2591 -91 
Q 2134 -91 1743 65 
Q 1353 222 1050 525 
Q 700 875 529 1320 
Q 359 1766 359 2328 
Q 359 3416 987 4083 
Q 1616 4750 2644 4750 
Q 3025 4750 3456 4650 
Q 3888 4550 4384 4347 
L 4384 3272 
L 4031 3272 
Q 3916 3859 3567 4137 
Q 3219 4416 2591 4416 
Q 1844 4416 1459 3886 
Q 1075 3356 1075 2328 
Q 1075 1303 1459 773 
Q 1844 244 2591 244 
Q 3113 244 3450 492 
Q 3788 741 3938 1234 
L 4513 1234 
z
" id="DejaVuSerif-43" transform="scale(0.015625)"/>
       <path d="M 3359 331 
L 3909 331 
L 3909 0 
L 2784 0 
L 2784 519 
Q 2616 206 2355 57 
Q 2094 -91 1709 -91 
Q 1097 -91 708 395 
Q 319 881 319 1663 
Q 319 2444 706 2928 
Q 1094 3413 1709 3413 
Q 2094 3413 2355 3264 
Q 2616 3116 2784 2803 
L 2784 4531 
L 2241 4531 
L 2241 4863 
L 3359 4863 
L 3359 331 
z
M 2784 1497 
L 2784 1825 
Q 2784 2422 2554 2737 
Q 2325 3053 1888 3053 
Q 1444 3053 1217 2703 
Q 991 2353 991 1663 
Q 991 975 1217 622 
Q 1444 269 1888 269 
Q 2325 269 2554 583 
Q 2784 897 2784 1497 
z
" id="DejaVuSerif-64" transform="scale(0.015625)"/>
       <path d="M 3059 3328 
L 3059 2497 
L 2728 2497 
Q 2713 2744 2591 2866 
Q 2469 2988 2234 2988 
Q 1809 2988 1582 2694 
Q 1356 2400 1356 1850 
L 1356 331 
L 2022 331 
L 2022 0 
L 263 0 
L 263 331 
L 781 331 
L 781 2994 
L 231 2994 
L 231 3322 
L 1356 3322 
L 1356 2731 
Q 1525 3078 1790 3245 
Q 2056 3413 2438 3413 
Q 2578 3413 2733 3391 
Q 2888 3369 3059 3328 
z
" id="DejaVuSerif-72" transform="scale(0.015625)"/>
       <path d="M 359 184 
L 359 959 
L 691 959 
Q 703 588 923 403 
Q 1144 219 1575 219 
Q 1963 219 2166 364 
Q 2369 509 2369 788 
Q 2369 1006 2220 1140 
Q 2072 1275 1594 1428 
L 1178 1569 
Q 750 1706 558 1912 
Q 366 2119 366 2438 
Q 366 2894 700 3153 
Q 1034 3413 1625 3413 
Q 1888 3413 2178 3344 
Q 2469 3275 2778 3144 
L 2778 2419 
L 2447 2419 
Q 2434 2741 2221 2922 
Q 2009 3103 1644 3103 
Q 1281 3103 1095 2975 
Q 909 2847 909 2591 
Q 909 2381 1050 2254 
Q 1191 2128 1613 1997 
L 2069 1856 
Q 2541 1709 2748 1489 
Q 2956 1269 2956 922 
Q 2956 450 2595 179 
Q 2234 -91 1600 -91 
Q 1278 -91 972 -22 
Q 666 47 359 184 
z
" id="DejaVuSerif-73" transform="scale(0.015625)"/>
       <path id="DejaVuSerif-20" transform="scale(0.015625)"/>
       <path d="M 3066 2316 
Q 3284 2256 3442 2114 
Q 3600 1972 3725 1716 
L 4403 331 
L 4972 331 
L 4972 0 
L 3872 0 
L 3144 1484 
Q 2934 1916 2759 2042 
Q 2584 2169 2278 2169 
L 1581 2169 
L 1581 331 
L 2241 331 
L 2241 0 
L 353 0 
L 353 331 
L 947 331 
L 947 4331 
L 353 4331 
L 353 4666 
L 2719 4666 
Q 3400 4666 3770 4341 
Q 4141 4016 4141 3419 
Q 4141 2938 3870 2661 
Q 3600 2384 3066 2316 
z
M 1581 2503 
L 2503 2503 
Q 2975 2503 3200 2726 
Q 3425 2950 3425 3419 
Q 3425 3888 3200 4109 
Q 2975 4331 2503 4331 
L 1581 4331 
L 1581 2503 
z
" id="DejaVuSerif-52" transform="scale(0.015625)"/>
       <path d="M 1434 4459 
Q 1159 4459 1004 4200 
Q 850 3941 850 3475 
Q 850 3016 1008 2753 
Q 1166 2491 1434 2491 
Q 1700 2491 1854 2752 
Q 2009 3013 2009 3475 
Q 2009 3938 1854 4198 
Q 1700 4459 1434 4459 
z
M 4653 2169 
Q 4381 2169 4226 1906 
Q 4072 1644 4072 1178 
Q 4072 719 4228 458 
Q 4384 197 4653 197 
Q 4922 197 5075 458 
Q 5228 719 5228 1178 
Q 5228 1641 5073 1905 
Q 4919 2169 4653 2169 
z
M 4653 2450 
Q 5147 2450 5437 2106 
Q 5728 1763 5728 1178 
Q 5728 594 5436 251 
Q 5144 -91 4653 -91 
Q 4153 -91 3862 251 
Q 3572 594 3572 1178 
Q 3572 1766 3864 2108 
Q 4156 2450 4653 2450 
z
M 4263 4750 
L 4738 4750 
L 1819 -91 
L 1344 -91 
L 4263 4750 
z
M 1428 4750 
Q 1922 4750 2215 4408 
Q 2509 4066 2509 3481 
Q 2509 2891 2217 2550 
Q 1925 2209 1428 2209 
Q 931 2209 642 2551 
Q 353 2894 353 3481 
Q 353 4063 643 4406 
Q 934 4750 1428 4750 
z
" id="DejaVuSerif-25" transform="scale(0.015625)"/>
       <path d="M 2094 219 
Q 2534 219 2771 542 
Q 3009 866 3009 1472 
Q 3009 2078 2771 2401 
Q 2534 2725 2094 2725 
Q 1647 2725 1412 2412 
Q 1178 2100 1178 1509 
Q 1178 888 1415 553 
Q 1653 219 2094 219 
z
M 1075 2569 
Q 1288 2803 1556 2918 
Q 1825 3034 2163 3034 
Q 2859 3034 3264 2615 
Q 3669 2197 3669 1472 
Q 3669 763 3233 336 
Q 2797 -91 2069 -91 
Q 1278 -91 853 498 
Q 428 1088 428 2181 
Q 428 3406 931 4078 
Q 1434 4750 2350 4750 
Q 2597 4750 2869 4703 
Q 3141 4656 3425 4563 
L 3425 3794 
L 3072 3794 
Q 3034 4109 2831 4275 
Q 2628 4441 2284 4441 
Q 1678 4441 1381 3981 
Q 1084 3522 1075 2569 
z
" id="DejaVuSerif-36" transform="scale(0.015625)"/>
      </defs>
      <use xlink:href="#DejaVuSerif-43"/>
      <use x="76.513672" xlink:href="#DejaVuSerif-65"/>
      <use x="135.693359" xlink:href="#DejaVuSerif-64"/>
      <use x="199.707031" xlink:href="#DejaVuSerif-65"/>
      <use x="258.886719" xlink:href="#DejaVuSerif-61"/>
      <use x="318.505859" xlink:href="#DejaVuSerif-72"/>
      <use x="366.308594" xlink:href="#DejaVuSerif-73"/>
      <use x="417.626953" xlink:href="#DejaVuSerif-20"/>
      <use x="449.414062" xlink:href="#DejaVuSerif-52"/>
      <use x="526.957031" xlink:href="#DejaVuSerif-61"/>
      <use x="586.576172" xlink:href="#DejaVuSerif-74"/>
      <use x="626.761719" xlink:href="#DejaVuSerif-65"/>
      <use x="685.941406" xlink:href="#DejaVuSerif-20"/>
      <use x="717.728516" xlink:href="#DejaVuSerif-25"/>
      <use x="812.748047" xlink:href="#DejaVuSerif-20"/>
      <use x="844.535156" xlink:href="#DejaVuSerif-34"/>
      <use x="908.158203" xlink:href="#DejaVuSerif-30"/>
      <use x="971.78125" xlink:href="#DejaVuSerif-2e"/>
      <use x="1003.568359" xlink:href="#DejaVuSerif-36"/>
      <use x="1067.191406" xlink:href="#DejaVuSerif-36"/>
     </g>
    </g>
    <g id="line2d_28">
     <path d="M 2600.009375 503.799375 
L 2680.009375 503.799375 
" style="fill:none;stroke:#fc4f30;stroke-width:5;"/>
    </g>
    <g id="line2d_29"/>
    <g id="text_15">
     <!-- ADRs Rate      % 32.73 -->
     <g transform="translate(2712.009375 517.799375)scale(0.4 -0.4)">
      <defs>
       <path d="M 1281 1691 
L 2994 1691 
L 2138 3909 
L 1281 1691 
z
M -38 0 
L -38 331 
L 372 331 
L 2034 4666 
L 2559 4666 
L 4225 331 
L 4684 331 
L 4684 0 
L 2988 0 
L 2988 331 
L 3506 331 
L 3116 1356 
L 1153 1356 
L 763 331 
L 1275 331 
L 1275 0 
L -38 0 
z
" id="DejaVuSerif-41" transform="scale(0.015625)"/>
      </defs>
      <use xlink:href="#DejaVuSerif-41"/>
      <use x="72.216797" xlink:href="#DejaVuSerif-44"/>
      <use x="152.392578" xlink:href="#DejaVuSerif-52"/>
      <use x="227.685547" xlink:href="#DejaVuSerif-73"/>
      <use x="279.003906" xlink:href="#DejaVuSerif-20"/>
      <use x="310.791016" xlink:href="#DejaVuSerif-52"/>
      <use x="388.333984" xlink:href="#DejaVuSerif-61"/>
      <use x="447.953125" xlink:href="#DejaVuSerif-74"/>
      <use x="488.138672" xlink:href="#DejaVuSerif-65"/>
      <use x="547.318359" xlink:href="#DejaVuSerif-20"/>
      <use x="579.105469" xlink:href="#DejaVuSerif-20"/>
      <use x="610.892578" xlink:href="#DejaVuSerif-20"/>
      <use x="642.679688" xlink:href="#DejaVuSerif-20"/>
      <use x="674.466797" xlink:href="#DejaVuSerif-20"/>
      <use x="706.253906" xlink:href="#DejaVuSerif-20"/>
      <use x="738.041016" xlink:href="#DejaVuSerif-25"/>
      <use x="833.060547" xlink:href="#DejaVuSerif-20"/>
      <use x="864.847656" xlink:href="#DejaVuSerif-33"/>
      <use x="928.470703" xlink:href="#DejaVuSerif-32"/>
      <use x="992.09375" xlink:href="#DejaVuSerif-2e"/>
      <use x="1023.880859" xlink:href="#DejaVuSerif-37"/>
      <use x="1087.503906" xlink:href="#DejaVuSerif-33"/>
     </g>
    </g>
    <g id="line2d_30">
     <path d="M 2600.009375 562.511875 
L 2680.009375 562.511875 
" style="fill:none;stroke:#e5ae38;stroke-width:5;"/>
    </g>
    <g id="line2d_31"/>
    <g id="text_16">
     <!-- Dollar+Taxes   % 27.84 -->
     <g transform="translate(2712.009375 576.511875)scale(0.4 -0.4)">
      <defs>
       <path d="M 1925 219 
Q 2388 219 2623 584 
Q 2859 950 2859 1663 
Q 2859 2375 2623 2739 
Q 2388 3103 1925 3103 
Q 1463 3103 1227 2739 
Q 991 2375 991 1663 
Q 991 950 1228 584 
Q 1466 219 1925 219 
z
M 1925 -91 
Q 1200 -91 759 389 
Q 319 869 319 1663 
Q 319 2456 758 2934 
Q 1197 3413 1925 3413 
Q 2653 3413 3092 2934 
Q 3531 2456 3531 1663 
Q 3531 869 3092 389 
Q 2653 -91 1925 -91 
z
" id="DejaVuSerif-6f" transform="scale(0.015625)"/>
       <path d="M 1313 331 
L 1856 331 
L 1856 0 
L 184 0 
L 184 331 
L 738 331 
L 738 4531 
L 184 4531 
L 184 4863 
L 1313 4863 
L 1313 331 
z
" id="DejaVuSerif-6c" transform="scale(0.015625)"/>
       <path d="M 2931 4013 
L 2931 2259 
L 4684 2259 
L 4684 1753 
L 2931 1753 
L 2931 0 
L 2431 0 
L 2431 1753 
L 678 1753 
L 678 2259 
L 2431 2259 
L 2431 4013 
L 2931 4013 
z
" id="DejaVuSerif-2b" transform="scale(0.015625)"/>
       <path d="M 1222 0 
L 1222 331 
L 1819 331 
L 1819 4294 
L 447 4294 
L 447 3566 
L 63 3566 
L 63 4666 
L 4206 4666 
L 4206 3566 
L 3822 3566 
L 3822 4294 
L 2450 4294 
L 2450 331 
L 3047 331 
L 3047 0 
L 1222 0 
z
" id="DejaVuSerif-54" transform="scale(0.015625)"/>
       <path d="M 1863 2028 
L 2559 2988 
L 2113 2988 
L 2113 3322 
L 3391 3322 
L 3391 2988 
L 2950 2988 
L 2059 1759 
L 3097 331 
L 3531 331 
L 3531 0 
L 1997 0 
L 1997 331 
L 2419 331 
L 1697 1325 
L 972 331 
L 1403 331 
L 1403 0 
L 141 0 
L 141 331 
L 581 331 
L 1497 1594 
L 488 2988 
L 78 2988 
L 78 3322 
L 1563 3322 
L 1563 2988 
L 1166 2988 
L 1863 2028 
z
" id="DejaVuSerif-78" transform="scale(0.015625)"/>
       <path d="M 2981 1275 
Q 2981 1775 2732 2051 
Q 2484 2328 2034 2328 
Q 1584 2328 1336 2051 
Q 1088 1775 1088 1275 
Q 1088 772 1336 495 
Q 1584 219 2034 219 
Q 2484 219 2732 495 
Q 2981 772 2981 1275 
z
M 2853 3541 
Q 2853 3966 2637 4203 
Q 2422 4441 2034 4441 
Q 1650 4441 1433 4203 
Q 1216 3966 1216 3541 
Q 1216 3113 1433 2875 
Q 1650 2638 2034 2638 
Q 2422 2638 2637 2875 
Q 2853 3113 2853 3541 
z
M 2516 2484 
Q 3047 2413 3344 2092 
Q 3641 1772 3641 1275 
Q 3641 619 3225 264 
Q 2809 -91 2034 -91 
Q 1263 -91 845 264 
Q 428 619 428 1275 
Q 428 1772 725 2092 
Q 1022 2413 1556 2484 
Q 1084 2569 832 2842 
Q 581 3116 581 3541 
Q 581 4103 968 4426 
Q 1356 4750 2034 4750 
Q 2713 4750 3100 4426 
Q 3488 4103 3488 3541 
Q 3488 3116 3236 2842 
Q 2984 2569 2516 2484 
z
" id="DejaVuSerif-38" transform="scale(0.015625)"/>
      </defs>
      <use xlink:href="#DejaVuSerif-44"/>
      <use x="80.175781" xlink:href="#DejaVuSerif-6f"/>
      <use x="140.380859" xlink:href="#DejaVuSerif-6c"/>
      <use x="172.363281" xlink:href="#DejaVuSerif-6c"/>
      <use x="204.345703" xlink:href="#DejaVuSerif-61"/>
      <use x="263.964844" xlink:href="#DejaVuSerif-72"/>
      <use x="311.767578" xlink:href="#DejaVuSerif-2b"/>
      <use x="395.556641" xlink:href="#DejaVuSerif-54"/>
      <use x="454.505859" xlink:href="#DejaVuSerif-61"/>
      <use x="514.125" xlink:href="#DejaVuSerif-78"/>
      <use x="570.521484" xlink:href="#DejaVuSerif-65"/>
      <use x="629.701172" xlink:href="#DejaVuSerif-73"/>
      <use x="681.019531" xlink:href="#DejaVuSerif-20"/>
      <use x="712.806641" xlink:href="#DejaVuSerif-20"/>
      <use x="744.59375" xlink:href="#DejaVuSerif-20"/>
      <use x="776.380859" xlink:href="#DejaVuSerif-25"/>
      <use x="871.400391" xlink:href="#DejaVuSerif-20"/>
      <use x="903.1875" xlink:href="#DejaVuSerif-32"/>
      <use x="966.810547" xlink:href="#DejaVuSerif-37"/>
      <use x="1030.433594" xlink:href="#DejaVuSerif-2e"/>
      <use x="1062.220703" xlink:href="#DejaVuSerif-38"/>
      <use x="1125.84375" xlink:href="#DejaVuSerif-34"/>
     </g>
    </g>
   </g>
  </g>
 </g>
 <defs>
  <clipPath id="pf56a5cac48">
   <rect height="881.28" width="2505.6" x="58.409375" y="66.121875"/>
  </clipPath>
 </defs>
</svg>
